<svg class="main-svg" xmlns="http://www.w3.org/2000/svg" xmlns:xlink="http://www.w3.org/1999/xlink" width="2200" height="1000" style="" viewBox="0 0 1100 500"><rect x="0" y="0" width="1100" height="500" style="fill: rgb(255, 255, 255); fill-opacity: 1;"/><defs id="defs-2fd85a"><g class="clips"><clipPath id="clip2fd85axyplot" class="plotclip"><rect width="1025" height="385"/></clipPath><clipPath class="axesclip" id="clip2fd85ax"><rect x="60" y="0" width="1025" height="500"/></clipPath><clipPath class="axesclip" id="clip2fd85ay"><rect x="0" y="50" width="1100" height="385"/></clipPath><clipPath class="axesclip" id="clip2fd85axy"><rect x="60" y="50" width="1025" height="385"/></clipPath></g><g class="gradients"/><g class="patterns"/></defs><g class="bglayer"/><g class="layer-below"><g class="imagelayer"/><g class="shapelayer"/></g><g class="cartesianlayer"><g class="subplot xy"><g class="layer-subplot"><g class="shapelayer"/><g class="imagelayer"/></g><g class="minor-gridlayer"><g class="x"/><g class="y"/></g><g class="gridlayer"><g class="x"><path class="xgrid crisp" transform="translate(241.1,0)" d="M0,50v385" style="stroke: rgb(128, 128, 128); stroke-opacity: 0.15; stroke-width: 1px;"/><path class="xgrid crisp" transform="translate(422.19,0)" d="M0,50v385" style="stroke: rgb(128, 128, 128); stroke-opacity: 0.15; stroke-width: 1px;"/><path class="xgrid crisp" transform="translate(603.29,0)" d="M0,50v385" style="stroke: rgb(128, 128, 128); stroke-opacity: 0.15; stroke-width: 1px;"/><path class="xgrid crisp" transform="translate(784.38,0)" d="M0,50v385" style="stroke: rgb(128, 128, 128); stroke-opacity: 0.15; stroke-width: 1px;"/><path class="xgrid crisp" transform="translate(965.48,0)" d="M0,50v385" style="stroke: rgb(128, 128, 128); stroke-opacity: 0.15; stroke-width: 1px;"/></g><g class="y"><path class="ygrid crisp" transform="translate(0,393.84)" d="M60,0h1025" style="stroke: rgb(128, 128, 128); stroke-opacity: 0.15; stroke-width: 1px;"/><path class="ygrid crisp" transform="translate(0,352.69)" d="M60,0h1025" style="stroke: rgb(128, 128, 128); stroke-opacity: 0.15; stroke-width: 1px;"/><path class="ygrid crisp" transform="translate(0,311.53)" d="M60,0h1025" style="stroke: rgb(128, 128, 128); stroke-opacity: 0.15; stroke-width: 1px;"/><path class="ygrid crisp" transform="translate(0,270.38)" d="M60,0h1025" style="stroke: rgb(128, 128, 128); stroke-opacity: 0.15; stroke-width: 1px;"/><path class="ygrid crisp" transform="translate(0,229.22)" d="M60,0h1025" style="stroke: rgb(128, 128, 128); stroke-opacity: 0.15; stroke-width: 1px;"/><path class="ygrid crisp" transform="translate(0,188.07)" d="M60,0h1025" style="stroke: rgb(128, 128, 128); stroke-opacity: 0.15; stroke-width: 1px;"/><path class="ygrid crisp" transform="translate(0,146.91)" d="M60,0h1025" style="stroke: rgb(128, 128, 128); stroke-opacity: 0.15; stroke-width: 1px;"/><path class="ygrid crisp" transform="translate(0,105.75999999999999)" d="M60,0h1025" style="stroke: rgb(128, 128, 128); stroke-opacity: 0.15; stroke-width: 1px;"/><path class="ygrid crisp" transform="translate(0,64.6)" d="M60,0h1025" style="stroke: rgb(128, 128, 128); stroke-opacity: 0.15; stroke-width: 1px;"/></g></g><g class="zerolinelayer"><path class="xzl zl crisp" transform="translate(60,0)" d="M0,50v385" style="stroke: rgb(128, 128, 128); stroke-opacity: 0.2; stroke-width: 1px;"/><path class="yzl zl crisp" transform="translate(0,435)" d="M60,0h1025" style="stroke: rgb(128, 128, 128); stroke-opacity: 0.2; stroke-width: 1px;"/></g><g class="layer-between"><g class="shapelayer"/><g class="imagelayer"/></g><path class="xlines-below"/><path class="ylines-below"/><g class="overlines-below"/><g class="xaxislayer-below"/><g class="yaxislayer-below"/><g class="overaxes-below"/><g class="overplot"><g class="xy" transform="translate(60,50)" clip-path="url(#clip2fd85axyplot)"><g class="scatterlayer mlayer"><g class="trace scatter trace9f6785" style="stroke-miterlimit: 2; opacity: 1;"><g class="fills"/><g class="errorbars"/><g class="lines"><path class="js-line" d="M0,385L9.05,366.62L10.87,363.28L21.73,344.76L25.35,339.08L39.84,318.29L41.65,315.88L56.14,297.88L57.95,295.78L74.25,278.09L76.06,276.25L94.17,259.09L95.98,257.49L112.28,243.85L115.9,241L137.63,225.13L139.44,223.89L162.99,208.89L164.8,207.82L188.34,194.66L190.15,193.71L219.13,179.58L222.75,177.94L249.91,166.44L253.53,165.01L286.13,152.99L287.94,152.37L322.35,141.31L324.16,140.76L364,129.61L365.81,129.14L407.46,119.04L409.28,118.63L463.6,107.35L465.42,107.01L517.93,97.71L519.74,97.42L575.88,88.86L577.69,88.6L659.19,78.14L661,77.93L740.68,69.43L744.3,69.08L822.17,62.07L823.98,61.91L930.83,53.85L932.64,53.72L1025,47.87" style="vector-effect: none; fill: none; stroke: rgb(124, 181, 236); stroke-opacity: 1; stroke-width: 2px; opacity: 1;"/></g><g class="points"/><g class="text"/></g><g class="trace scatter tracecf07c5" style="stroke-miterlimit: 2; opacity: 1;"><g class="fills"/><g class="errorbars"/><g class="lines"><path class="js-line" d="M0,385L5.43,373.97L9.05,367.47L19.92,350.43L21.73,347.88L34.41,331.76L36.22,329.67L50.71,314.58L52.52,312.87L67.01,300.33L70.63,297.48L86.93,285.85L88.74,284.66L106.85,273.81L108.66,272.81L128.58,262.78L132.2,261.11L155.74,251.33L157.55,250.64L182.91,241.83L184.72,241.25L213.69,232.88L215.5,232.41L249.91,224.18L253.53,223.4L295.19,215.37L297,215.05L342.27,207.99L345.89,207.48L402.03,200.48L403.84,200.28L469.04,193.8L470.85,193.65L541.48,188.09L545.1,187.84L624.78,182.86L626.59,182.76L737.06,177.39L738.87,177.32L847.53,173.23L851.15,173.11L1010.51,168.57L1012.32,168.52L1025,168.22" style="vector-effect: none; fill: none; stroke: rgb(67, 67, 72); stroke-opacity: 1; stroke-width: 2px; opacity: 1;"/></g><g class="points"/><g class="text"/></g><g class="trace scatter trace2fd7a8" style="stroke-miterlimit: 2; opacity: 1;"><g class="fills"/><g class="errorbars"/><g class="lines"><path class="js-line" d="M0,385L9.05,366.53L10.87,363.16L21.73,344.56L25.35,338.88L36.22,323.08L39.84,318.18L52.52,302.3L56.14,298.09L72.44,280.65L74.25,278.85L92.36,262.17L94.17,260.62L112.28,246.2L115.9,243.52L135.82,229.88L137.63,228.73L159.36,215.8L162.99,213.8L188.34,200.89L190.15,200.04L217.31,188.12L219.13,187.38L249.91,175.78L253.53,174.52L287.94,163.51L289.75,162.98L327.78,152.6L331.4,151.69L373.06,142.06L376.68,141.3L416.52,133.43L418.33,133.1L470.85,124.24L472.66,123.96L530.61,115.74L532.42,115.5L608.48,106.57L610.29,106.38L691.78,98.55L693.6,98.39L791.39,90.74L793.2,90.61L887.37,84.59L889.18,84.48L1025,77.46" style="vector-effect: none; fill: none; stroke: rgb(144, 237, 125); stroke-opacity: 1; stroke-width: 2px; opacity: 1;"/></g><g class="points"/><g class="text"/></g><g class="trace scatter trace9a2ef4" style="stroke-miterlimit: 2; opacity: 1;"><g class="fills"/><g class="errorbars"/><g class="lines"><path class="js-line" d="M0,385L5.43,375.68L9.05,371.12L16.3,364.22L18.11,362.83L27.16,357.26L28.98,356.36L39.84,351.99L41.65,351.4L56.14,347.63L57.95,347.25L79.68,343.69L81.49,343.45L115.9,339.99L117.71,339.85L159.36,337.08L162.99,336.87L240.86,333.3L242.67,333.23L383.92,329.22L385.73,329.18L539.66,326.52L541.48,326.49L764.22,324.16L766.03,324.14L1025,322.56" style="vector-effect: none; fill: none; stroke: rgb(247, 163, 92); stroke-opacity: 1; stroke-width: 2px; opacity: 1;"/></g><g class="points"/><g class="text"/></g><g class="trace scatter trace382af7" style="stroke-miterlimit: 2; opacity: 1;"><g class="fills"/><g class="errorbars"/><g class="lines"><path class="js-line" d="M0,385L5.43,374.65L9.05,368.75L18.11,356.05L19.92,353.78L30.79,341.63L32.6,339.81L45.27,328.43L47.08,326.97L61.57,316.5L63.38,315.33L79.68,305.84L81.49,304.89L101.41,295.6L103.22,294.85L124.96,286.76L126.77,286.15L152.12,278.6L153.93,278.12L184.72,270.89L186.53,270.51L222.75,263.85L224.56,263.56L266.21,257.6L269.83,257.15L324.16,251.27L325.97,251.1L387.54,246.06L391.17,245.8L461.79,241.45L463.6,241.36L550.53,237.32L552.34,237.25L686.35,232.8L688.16,232.75L843.9,229.19L845.72,229.16L981.54,226.9L983.35,226.87L1025,226.29" style="vector-effect: none; fill: none; stroke: rgb(128, 133, 233); stroke-opacity: 1; stroke-width: 2px; opacity: 1;"/></g><g class="points"/><g class="text"/></g><g class="trace scatter tracef41d97" style="stroke-miterlimit: 2; opacity: 1;"><g class="fills"/><g class="errorbars"/><g class="lines"><path class="js-line" d="M0,385L5.43,374.18L9.05,367.86L19.92,351.33L21.73,348.85L34.41,333.13L36.22,331.09L50.71,316.23L52.52,314.54L67.01,302.09L70.63,299.25L86.93,287.6L88.74,286.41L106.85,275.46L108.66,274.46L128.58,264.27L132.2,262.58L155.74,252.59L157.55,251.89L182.91,242.88L184.72,242.29L211.88,234.16L213.69,233.67L248.1,225.09L249.91,224.68L291.56,216.22L293.37,215.89L338.65,208.42L340.46,208.15L387.54,201.8L391.17,201.36L449.12,195.01L452.74,194.65L536.04,187.56L537.85,187.42L639.27,180.87L641.08,180.77L755.17,175.21L758.79,175.06L869.26,170.91L871.07,170.85L1025,166.4" style="vector-effect: none; fill: none; stroke: rgb(241, 92, 128); stroke-opacity: 1; stroke-width: 2px; opacity: 1;"/></g><g class="points"/><g class="text"/></g><g class="trace scatter trace918b53" style="stroke-miterlimit: 2; opacity: 1;"><g class="fills"/><g class="errorbars"/><g class="lines"><path class="js-line" d="M0,385L5.43,375.71L9.05,370.99L16.3,363.55L18.11,362L27.16,355.57L28.98,354.5L39.84,349.14L41.65,348.4L56.14,343.51L57.95,343.01L76.06,338.87L77.87,338.53L103.22,334.67L105.04,334.45L139.44,330.97L141.25,330.82L197.39,327.2L199.2,327.11L269.83,324.35L271.64,324.29L398.41,321.51L400.22,321.48L554.15,319.67L555.96,319.65L840.28,318.01L842.09,318.01L1025,317.37" style="vector-effect: none; fill: none; stroke: rgb(228, 211, 84); stroke-opacity: 1; stroke-width: 2px; opacity: 1;"/></g><g class="points"/><g class="text"/></g><g class="trace scatter trace39a427" style="stroke-miterlimit: 2; opacity: 1;"><g class="fills"/><g class="errorbars"/><g class="lines"><path class="js-line" d="M0,385L5.43,375.61L9.05,370.78L16.3,362.96L18.11,361.3L27.16,354.2L28.98,352.99L39.84,346.76L41.65,345.87L56.14,339.88L57.95,339.25L74.25,334.4L76.06,333.94L97.79,329.3L101.41,328.65L128.58,324.6L132.2,324.16L170.23,320.24L172.04,320.09L222.75,316.6L224.56,316.5L280.7,313.83L284.32,313.69L371.25,311.05L373.06,311.01L494.39,308.73L496.2,308.7L706.27,306.53L708.08,306.52L1025,304.83" style="vector-effect: none; fill: none; stroke: rgb(43, 144, 143); stroke-opacity: 1; stroke-width: 2px; opacity: 1;"/></g><g class="points"/><g class="text"/></g><g class="trace scatter trace5037d4" style="stroke-miterlimit: 2; opacity: 1;"><g class="fills"/><g class="errorbars"/><g class="lines"><path class="js-line" d="M0,385L5.43,375.96L9.05,371.29L18.11,362.06L19.92,360.52L28.98,353.88L30.79,352.73L43.46,345.96L45.27,345.14L59.76,339.55L61.57,338.96L79.68,333.92L81.49,333.49L105.04,328.84L106.85,328.54L134.01,324.71L135.82,324.5L173.85,320.75L177.47,320.45L233.61,316.83L235.42,316.74L306.05,313.79L307.86,313.73L411.09,311.03L412.9,311L532.42,309.1L534.23,309.08L822.17,306.61L823.98,306.6L1025,305.64" style="vector-effect: none; fill: none; stroke: rgb(244, 91, 91); stroke-opacity: 1; stroke-width: 2px; opacity: 1;"/></g><g class="points"/><g class="text"/></g><g class="trace scatter trace1288ec" style="stroke-miterlimit: 2; opacity: 1;"><g class="fills"/><g class="errorbars"/><g class="lines"><path class="js-line" d="M0,385L5.43,374.92L9.05,369.37L18.11,357.71L19.92,355.65L30.79,344.74L32.6,343.12L45.27,333.04L47.08,331.75L61.57,322.56L63.38,321.53L79.68,313.25L81.49,312.42L101.41,304.36L103.22,303.71L126.77,296.2L128.58,295.69L155.74,288.9L157.55,288.5L186.53,282.79L188.34,282.47L228.18,276.37L229.99,276.13L275.27,270.86L277.08,270.67L336.84,265.46L338.65,265.32L400.22,261.29L402.03,261.19L496.2,256.7L499.82,256.55L624.78,252.46L626.59,252.41L769.66,249.2L771.47,249.17L957.99,246.31L959.81,246.29L1025,245.52" style="vector-effect: none; fill: none; stroke: rgb(145, 232, 225); stroke-opacity: 1; stroke-width: 2px; opacity: 1;"/></g><g class="points"/><g class="text"/></g><g class="trace scatter trace983c7c" style="stroke-miterlimit: 2; opacity: 1;"><g class="fills"/><g class="errorbars"/><g class="lines"><path class="js-line" d="M0,385L5.43,375.65L9.05,370.94L16.3,363.57L18.11,362.04L27.16,355.72L28.98,354.67L39.84,349.44L41.65,348.72L56.14,343.98L57.95,343.49L76.06,339.51L77.87,339.18L101.41,335.69L103.22,335.47L141.25,331.77L143.07,331.63L202.83,327.91L204.64,327.82L291.56,324.22L293.37,324.16L416.52,320.83L418.33,320.79L630.21,317.41L632.02,317.39L755.17,316.07L758.79,316.04L961.62,314.54L963.43,314.53L1025,314.19" style="vector-effect: none; fill: none; stroke: rgb(124, 181, 236); stroke-opacity: 1; stroke-width: 2px; opacity: 1;"/></g><g class="points"/><g class="text"/></g><g class="trace scatter traceadbab3" style="stroke-miterlimit: 2; opacity: 1;"><g class="fills"/><g class="errorbars"/><g class="lines"><path class="js-line" d="M0,385L3.62,379.29L5.43,377.2L12.68,371.26L14.49,370.17L21.73,366.79L25.35,365.51L36.22,362.72L39.84,362.02L57.95,359.53L59.76,359.34L88.74,357.15L90.55,357.04L143.07,354.82L146.69,354.72L217.31,353.1L219.13,353.07L331.4,351.64L333.22,351.63L488.96,350.65L490.77,350.64L704.46,349.89L706.27,349.88L1025,349.35" style="vector-effect: none; fill: none; stroke: rgb(67, 67, 72); stroke-opacity: 1; stroke-width: 2px; opacity: 1;"/></g><g class="points"/><g class="text"/></g><g class="trace scatter trace4710d4" style="stroke-miterlimit: 2; opacity: 1;"><g class="fills"/><g class="errorbars"/><g class="lines"><path class="js-line" d="M0,385L3.62,378.87L5.43,376.5L12.68,369.3L14.49,367.9L21.73,363.35L25.35,361.55L36.22,357.39L39.84,356.32L52.52,353.33L56.14,352.65L77.87,349.55L79.68,349.35L112.28,346.5L115.9,346.26L168.42,343.5L170.23,343.42L249.91,340.62L253.53,340.52L380.3,337.76L382.11,337.73L584.94,335.1L586.75,335.09L807.69,333.39L809.5,333.38L1025,332.42" style="vector-effect: none; fill: none; stroke: rgb(144, 237, 125); stroke-opacity: 1; stroke-width: 2px; opacity: 1;"/></g><g class="points"/><g class="text"/></g><g class="trace scatter traceb5e50f" style="stroke-miterlimit: 2; opacity: 1;"><g class="fills"/><g class="errorbars"/><g class="lines"><path class="js-line" d="M0,385L5.43,376.09L9.05,371.69L16.3,364.93L18.11,363.55L27.16,357.92L28.98,357L39.84,352.47L41.65,351.85L56.14,347.84L57.95,347.44L77.87,343.86L79.68,343.6L108.66,340.29L110.47,340.12L153.93,337.02L155.74,336.91L226.37,333.73L228.18,333.66L367.62,329.74L369.43,329.7L514.31,327.25L516.12,327.22L838.47,324.33L840.28,324.33L1025,323.37" style="vector-effect: none; fill: none; stroke: rgb(247, 163, 92); stroke-opacity: 1; stroke-width: 2px; opacity: 1;"/></g><g class="points"/><g class="text"/></g><g class="trace scatter trace7a220d" style="stroke-miterlimit: 2; opacity: 1;"><g class="fills"/><g class="errorbars"/><g class="lines"><path class="js-line" d="M0,385L5.43,375.69L9.05,371.11L16.3,364.1L18.11,362.67L27.16,356.85L28.98,355.9L39.84,351.23L41.65,350.58L56.14,346.42L57.95,346L76.06,342.54L77.87,342.26L103.22,339.04L105.04,338.85L139.44,335.95L141.25,335.82L201.02,332.62L202.83,332.55L266.21,330.45L269.83,330.35L373.06,328.23L376.68,328.18L528.8,326.39L530.61,326.38L700.84,325.24L702.65,325.23L1025,324.06" style="vector-effect: none; fill: none; stroke: rgb(128, 133, 233); stroke-opacity: 1; stroke-width: 2px; opacity: 1;"/></g><g class="points"/><g class="text"/></g><g class="trace scatter trace51a6f7" style="stroke-miterlimit: 2; opacity: 1;"><g class="fills"/><g class="errorbars"/><g class="lines"><path class="js-line" d="M0,385L3.62,379.05L5.43,376.85L12.68,370.64L14.49,369.51L21.73,366L25.35,364.69L36.22,361.8L39.84,361.08L57.95,358.47L59.76,358.27L92.36,355.58L94.17,355.46L159.36,352.18L162.99,352.04L293.37,347.73L295.19,347.68L537.85,342.97L539.66,342.95L717.14,340.77L718.95,340.75L936.26,338.8L938.07,338.78L1025,338.16" style="vector-effect: none; fill: none; stroke: rgb(241, 92, 128); stroke-opacity: 1; stroke-width: 2px; opacity: 1;"/></g><g class="points"/><g class="text"/></g><g class="trace scatter tracef83b03" style="stroke-miterlimit: 2; opacity: 1;"><g class="fills"/><g class="errorbars"/><g class="lines"><path class="js-line" d="M0,385L5.43,376.03L9.05,371.64L16.3,364.91L18.11,363.54L27.16,357.96L28.98,357.05L39.84,352.57L41.65,351.96L56.14,348L57.95,347.59L79.68,343.79L81.49,343.53L112.28,340.13L115.9,339.81L166.61,336.31L168.42,336.21L244.48,332.74L246.29,332.67L340.46,329.77L342.27,329.73L514.31,326.19L516.12,326.16L740.68,323.17L744.3,323.13L1025,320.74" style="vector-effect: none; fill: none; stroke: rgb(228, 211, 84); stroke-opacity: 1; stroke-width: 2px; opacity: 1;"/></g><g class="points"/><g class="text"/></g><g class="trace scatter trace6b441c" style="stroke-miterlimit: 2; opacity: 1;"><g class="fills"/><g class="errorbars"/><g class="lines"><path class="js-line" d="M0,385L3.62,379.24L5.43,377.22L12.68,371.8L14.49,370.86L21.73,368.07L25.35,367.05L36.22,364.87L39.84,364.32L63.38,361.81L65.19,361.66L119.52,358.2L121.33,358.1L224.56,353.69L226.37,353.63L376.68,349.36L378.49,349.32L552.34,346.22L554.15,346.2L724.38,344.11L728,344.07L999.65,341.81L1003.27,341.79L1025,341.65" style="vector-effect: none; fill: none; stroke: rgb(43, 144, 143); stroke-opacity: 1; stroke-width: 2px; opacity: 1;"/></g><g class="points"/><g class="text"/></g><g class="trace scatter trace4afba8" style="stroke-miterlimit: 2; opacity: 1;"><g class="fills"/><g class="errorbars"/><g class="lines"><path class="js-line" d="M0,385L5.43,375.54L9.05,370.53L18.11,360.32L19.92,358.58L28.98,350.97L30.79,349.64L41.65,342.64L43.46,341.61L57.95,334.58L59.76,333.82L76.06,327.91L77.87,327.35L97.79,321.96L101.41,321.13L124.96,316.5L126.77,316.19L159.36,311.49L162.99,311.05L201.02,307.13L202.83,306.97L255.34,303.05L257.16,302.94L316.92,299.72L318.73,299.64L391.17,296.76L392.98,296.7L508.88,293.59L510.69,293.55L673.67,290.69L675.49,290.67L1025,287.38" style="vector-effect: none; fill: none; stroke: rgb(244, 91, 91); stroke-opacity: 1; stroke-width: 2px; opacity: 1;"/></g><g class="points"/><g class="text"/></g><g class="trace scatter traceeaa0b1" style="stroke-miterlimit: 2; opacity: 1;"><g class="fills"/><g class="errorbars"/><g class="lines"><path class="js-line" d="M0,385L5.43,374.16L9.05,367.77L19.92,350.88L21.73,348.32L36.22,329.77L39.84,325.59L52.52,312.14L56.14,308.6L72.44,294L74.25,292.51L90.55,279.98L92.36,278.69L110.47,266.66L112.28,265.54L134.01,253.16L135.82,252.21L159.36,240.75L162.99,239.13L188.34,228.7L190.15,228.01L219.13,217.81L222.75,216.64L258.97,206.01L260.78,205.53L295.19,196.99L297,196.58L340.46,187.5L342.27,187.15L392.98,178.36L394.79,178.07L452.74,169.82L454.55,169.59L508.88,163.14L510.69,162.94L586.75,155.46L590.37,155.14L671.86,148.66L673.67,148.53L771.47,142.25L775.09,142.05L862.01,137.49L865.64,137.32L1025,130.74" style="vector-effect: none; fill: none; stroke: rgb(145, 232, 225); stroke-opacity: 1; stroke-width: 2px; opacity: 1;"/></g><g class="points"/><g class="text"/></g><g class="trace scatter trace410bc6" style="stroke-miterlimit: 2; opacity: 1;"><g class="fills"/><g class="errorbars"/><g class="lines"><path class="js-line" d="M0,385L5.43,374.87L9.05,369.31L18.11,357.78L19.92,355.78L28.98,346.93L30.79,345.36L41.65,337.01L43.46,335.78L56.14,328.15L57.95,327.18L72.44,320.34L74.25,319.58L92.36,312.93L94.17,312.35L112.28,307.13L115.9,306.2L141.25,300.61L143.07,300.26L179.28,294.29L181.1,294.03L219.13,289.41L222.75,289.04L266.21,285.17L269.83,284.89L327.78,281.14L331.4,280.93L443.68,276.05L445.49,275.99L575.88,272.42L577.69,272.38L735.25,269.65L737.06,269.63L892.8,267.78L896.42,267.75L1025,266.63" style="vector-effect: none; fill: none; stroke: rgb(124, 181, 236); stroke-opacity: 1; stroke-width: 2px; opacity: 1;"/></g><g class="points"/><g class="text"/></g><g class="trace scatter tracefb1530" style="stroke-miterlimit: 2; opacity: 1;"><g class="fills"/><g class="errorbars"/><g class="lines"><path class="js-line" d="M0,385L5.43,374.56L9.05,368.77L18.11,356.79L19.92,354.73L28.98,345.63L30.79,344.03L41.65,335.59L43.46,334.35L56.14,326.77L57.95,325.82L72.44,319.18L74.25,318.45L92.36,312.15L94.17,311.6L115.9,305.97L117.71,305.56L143.07,300.68L146.69,300.09L179.28,295.59L181.1,295.37L222.75,291.25L224.56,291.1L278.89,287.35L280.7,287.25L358.57,283.68L362.19,283.55L447.31,280.99L449.12,280.94L586.75,278.24L590.37,278.19L755.17,276.2L758.79,276.16L1025,274.27" style="vector-effect: none; fill: none; stroke: rgb(67, 67, 72); stroke-opacity: 1; stroke-width: 2px; opacity: 1;"/></g><g class="points"/><g class="text"/></g><g class="trace scatter trace4336f5" style="stroke-miterlimit: 2; opacity: 1;"><g class="fills"/><g class="errorbars"/><g class="lines"><path class="js-line" d="M0,385L9.05,367.15L10.87,363.92L21.73,345.97L25.35,340.44L39.84,320.04L41.65,317.66L57.95,297.66L59.76,295.57L77.87,276.1L79.68,274.27L97.79,257.07L101.41,253.85L123.14,235.79L124.96,234.38L146.69,218.41L148.5,217.16L172.04,201.79L173.85,200.67L201.02,184.97L202.83,183.99L229.99,170.1L231.8,169.22L260.78,156.05L262.59,155.27L295.19,142.13L297,141.45L335.03,127.96L336.84,127.36L373.06,116.04L376.68,114.98L418.33,103.53L421.95,102.6L470.85,90.9L472.66,90.5L517.93,80.97L519.74,80.61L586.75,68.38L590.37,67.78L659.19,57.12L661,56.86L731.63,47.46L733.44,47.24L823.98,36.98L825.8,36.79L909.1,28.75L912.72,28.42L1023.19,19.39L1025,19.25" style="vector-effect: none; fill: none; stroke: rgb(144, 237, 125); stroke-opacity: 1; stroke-width: 2px; opacity: 1;"/></g><g class="points"/><g class="text"/></g><g class="trace scatter trace4f425c" style="stroke-miterlimit: 2; opacity: 1;"><g class="fills"/><g class="errorbars"/><g class="lines"><path class="js-line" d="M0,385L5.43,374.4L9.05,368.53L18.11,356.47L19.92,354.4L28.98,345.38L30.79,343.8L41.65,335.52L43.46,334.31L56.14,326.95L57.95,326.04L72.44,319.61L74.25,318.91L90.55,313.36L92.36,312.81L112.28,307.6L115.9,306.77L143.07,301.55L146.69,300.96L181.1,296.15L182.91,295.94L226.37,291.61L228.18,291.45L284.32,287.52L286.13,287.42L349.51,284.31L351.33,284.24L434.63,281.29L438.25,281.18L577.69,278.06L579.51,278.03L791.39,275.25L793.2,275.23L1019.57,273.47L1021.38,273.46L1025,273.44" style="vector-effect: none; fill: none; stroke: rgb(247, 163, 92); stroke-opacity: 1; stroke-width: 2px; opacity: 1;"/></g><g class="points"/><g class="text"/></g><g class="trace scatter traceb4ffde" style="stroke-miterlimit: 2; opacity: 1;"><g class="fills"/><g class="errorbars"/><g class="lines"><path class="js-line" d="M0,385L160.93,19.28" style="vector-effect: none; fill: none; stroke: rgb(0, 0, 0); stroke-opacity: 1; stroke-dasharray: 9px, 9px; stroke-width: 1px; opacity: 1;"/></g><g class="points"/><g class="text"/></g></g></g></g><g class="zerolinelayer-above"/><path class="xlines-above crisp" d="M0,0" style="fill: none;"/><path class="ylines-above crisp" d="M0,0" style="fill: none;"/><g class="overlines-above"/><g class="xaxislayer-above"><g class="xtick"><text text-anchor="middle" x="0" y="451" transform="translate(60,0)" style="font-family: system-ui, -apple-system, 'Segoe UI', Roboto, 'Helvetica Neue', 'Noto Sans', 'Liberation Sans', Arial, sans-serif, 'Apple Color Emoji', 'Segoe UI Emoji', 'Segoe UI Symbol', 'Noto Color Emoji'; font-size: 10px; fill: rgb(80, 80, 80); fill-opacity: 1; white-space: pre;">0M</text></g><g class="xtick"><text text-anchor="middle" x="0" y="451" style="font-family: system-ui, -apple-system, 'Segoe UI', Roboto, 'Helvetica Neue', 'Noto Sans', 'Liberation Sans', Arial, sans-serif, 'Apple Color Emoji', 'Segoe UI Emoji', 'Segoe UI Symbol', 'Noto Color Emoji'; font-size: 10px; fill: rgb(80, 80, 80); fill-opacity: 1; white-space: pre;" transform="translate(241.1,0)">100M</text></g><g class="xtick"><text text-anchor="middle" x="0" y="451" style="font-family: system-ui, -apple-system, 'Segoe UI', Roboto, 'Helvetica Neue', 'Noto Sans', 'Liberation Sans', Arial, sans-serif, 'Apple Color Emoji', 'Segoe UI Emoji', 'Segoe UI Symbol', 'Noto Color Emoji'; font-size: 10px; fill: rgb(80, 80, 80); fill-opacity: 1; white-space: pre;" transform="translate(422.19,0)">200M</text></g><g class="xtick"><text text-anchor="middle" x="0" y="451" style="font-family: system-ui, -apple-system, 'Segoe UI', Roboto, 'Helvetica Neue', 'Noto Sans', 'Liberation Sans', Arial, sans-serif, 'Apple Color Emoji', 'Segoe UI Emoji', 'Segoe UI Symbol', 'Noto Color Emoji'; font-size: 10px; fill: rgb(80, 80, 80); fill-opacity: 1; white-space: pre;" transform="translate(603.29,0)">300M</text></g><g class="xtick"><text text-anchor="middle" x="0" y="451" style="font-family: system-ui, -apple-system, 'Segoe UI', Roboto, 'Helvetica Neue', 'Noto Sans', 'Liberation Sans', Arial, sans-serif, 'Apple Color Emoji', 'Segoe UI Emoji', 'Segoe UI Symbol', 'Noto Color Emoji'; font-size: 10px; fill: rgb(80, 80, 80); fill-opacity: 1; white-space: pre;" transform="translate(784.38,0)">400M</text></g><g class="xtick"><text text-anchor="middle" x="0" y="451" style="font-family: system-ui, -apple-system, 'Segoe UI', Roboto, 'Helvetica Neue', 'Noto Sans', 'Liberation Sans', Arial, sans-serif, 'Apple Color Emoji', 'Segoe UI Emoji', 'Segoe UI Symbol', 'Noto Color Emoji'; font-size: 10px; fill: rgb(80, 80, 80); fill-opacity: 1; white-space: pre;" transform="translate(965.48,0)">500M</text></g></g><g class="yaxislayer-above"><g class="ytick"><text text-anchor="end" x="54" y="3.5" transform="translate(0,435)" style="font-family: system-ui, -apple-system, 'Segoe UI', Roboto, 'Helvetica Neue', 'Noto Sans', 'Liberation Sans', Arial, sans-serif, 'Apple Color Emoji', 'Segoe UI Emoji', 'Segoe UI Symbol', 'Noto Color Emoji'; font-size: 10px; fill: rgb(80, 80, 80); fill-opacity: 1; white-space: pre;">0M</text></g><g class="ytick"><text text-anchor="end" x="54" y="3.5" style="font-family: system-ui, -apple-system, 'Segoe UI', Roboto, 'Helvetica Neue', 'Noto Sans', 'Liberation Sans', Arial, sans-serif, 'Apple Color Emoji', 'Segoe UI Emoji', 'Segoe UI Symbol', 'Noto Color Emoji'; font-size: 10px; fill: rgb(80, 80, 80); fill-opacity: 1; white-space: pre;" transform="translate(0,393.84)">10M</text></g><g class="ytick"><text text-anchor="end" x="54" y="3.5" style="font-family: system-ui, -apple-system, 'Segoe UI', Roboto, 'Helvetica Neue', 'Noto Sans', 'Liberation Sans', Arial, sans-serif, 'Apple Color Emoji', 'Segoe UI Emoji', 'Segoe UI Symbol', 'Noto Color Emoji'; font-size: 10px; fill: rgb(80, 80, 80); fill-opacity: 1; white-space: pre;" transform="translate(0,352.69)">20M</text></g><g class="ytick"><text text-anchor="end" x="54" y="3.5" style="font-family: system-ui, -apple-system, 'Segoe UI', Roboto, 'Helvetica Neue', 'Noto Sans', 'Liberation Sans', Arial, sans-serif, 'Apple Color Emoji', 'Segoe UI Emoji', 'Segoe UI Symbol', 'Noto Color Emoji'; font-size: 10px; fill: rgb(80, 80, 80); fill-opacity: 1; white-space: pre;" transform="translate(0,311.53)">30M</text></g><g class="ytick"><text text-anchor="end" x="54" y="3.5" style="font-family: system-ui, -apple-system, 'Segoe UI', Roboto, 'Helvetica Neue', 'Noto Sans', 'Liberation Sans', Arial, sans-serif, 'Apple Color Emoji', 'Segoe UI Emoji', 'Segoe UI Symbol', 'Noto Color Emoji'; font-size: 10px; fill: rgb(80, 80, 80); fill-opacity: 1; white-space: pre;" transform="translate(0,270.38)">40M</text></g><g class="ytick"><text text-anchor="end" x="54" y="3.5" style="font-family: system-ui, -apple-system, 'Segoe UI', Roboto, 'Helvetica Neue', 'Noto Sans', 'Liberation Sans', Arial, sans-serif, 'Apple Color Emoji', 'Segoe UI Emoji', 'Segoe UI Symbol', 'Noto Color Emoji'; font-size: 10px; fill: rgb(80, 80, 80); fill-opacity: 1; white-space: pre;" transform="translate(0,229.22)">50M</text></g><g class="ytick"><text text-anchor="end" x="54" y="3.5" style="font-family: system-ui, -apple-system, 'Segoe UI', Roboto, 'Helvetica Neue', 'Noto Sans', 'Liberation Sans', Arial, sans-serif, 'Apple Color Emoji', 'Segoe UI Emoji', 'Segoe UI Symbol', 'Noto Color Emoji'; font-size: 10px; fill: rgb(80, 80, 80); fill-opacity: 1; white-space: pre;" transform="translate(0,188.07)">60M</text></g><g class="ytick"><text text-anchor="end" x="54" y="3.5" style="font-family: system-ui, -apple-system, 'Segoe UI', Roboto, 'Helvetica Neue', 'Noto Sans', 'Liberation Sans', Arial, sans-serif, 'Apple Color Emoji', 'Segoe UI Emoji', 'Segoe UI Symbol', 'Noto Color Emoji'; font-size: 10px; fill: rgb(80, 80, 80); fill-opacity: 1; white-space: pre;" transform="translate(0,146.91)">70M</text></g><g class="ytick"><text text-anchor="end" x="54" y="3.5" style="font-family: system-ui, -apple-system, 'Segoe UI', Roboto, 'Helvetica Neue', 'Noto Sans', 'Liberation Sans', Arial, sans-serif, 'Apple Color Emoji', 'Segoe UI Emoji', 'Segoe UI Symbol', 'Noto Color Emoji'; font-size: 10px; fill: rgb(80, 80, 80); fill-opacity: 1; white-space: pre;" transform="translate(0,105.75999999999999)">80M</text></g><g class="ytick"><text text-anchor="end" x="54" y="3.5" style="font-family: system-ui, -apple-system, 'Segoe UI', Roboto, 'Helvetica Neue', 'Noto Sans', 'Liberation Sans', Arial, sans-serif, 'Apple Color Emoji', 'Segoe UI Emoji', 'Segoe UI Symbol', 'Noto Color Emoji'; font-size: 10px; fill: rgb(80, 80, 80); fill-opacity: 1; white-space: pre;" transform="translate(0,64.6)">90M</text></g></g><g class="overaxes-above"/></g></g><g class="polarlayer"/><g class="smithlayer"/><g class="ternarylayer"/><g class="geolayer"/><g class="funnelarealayer"/><g class="pielayer"/><g class="iciclelayer"/><g class="treemaplayer"/><g class="sunburstlayer"/><g class="glimages"/><defs id="topdefs-2fd85a"><g class="clips"/></defs><g class="layer-above"><g class="imagelayer"/><g class="shapelayer"/></g><g class="infolayer"><g class="g-gtitle"><text class="gtitle" x="550" y="25" text-anchor="middle" dy="0em" style="opacity: 1; font-family: system-ui, -apple-system, 'Segoe UI', Roboto, 'Helvetica Neue', 'Noto Sans', 'Liberation Sans', Arial, sans-serif, 'Apple Color Emoji', 'Segoe UI Emoji', 'Segoe UI Symbol', 'Noto Color Emoji'; font-size: 20px; fill: rgb(60, 60, 60); fill-opacity: 1; white-space: pre;"><tspan class="line" dy="0em" x="550" y="25">Preseq: Complexity curve (molecule count)</tspan><tspan class="line" dy="1.3em" x="550" y="25">​<tspan style="font-size:70%" dy="-0.6em">25 lines</tspan><tspan dy="0.42em">​</tspan></tspan></text></g><g class="g-xtitle"><text class="xtitle" x="572.5" y="487" text-anchor="middle" style="opacity: 1; font-family: system-ui, -apple-system, 'Segoe UI', Roboto, 'Helvetica Neue', 'Noto Sans', 'Liberation Sans', Arial, sans-serif, 'Apple Color Emoji', 'Segoe UI Emoji', 'Segoe UI Symbol', 'Noto Color Emoji'; font-size: 14px; fill: rgb(100, 100, 100); fill-opacity: 1; white-space: pre;">Total molecules (including duplicates)</text></g><g class="g-ytitle"><text class="ytitle" transform="rotate(-90,22,242.5)" x="22" y="242.5" text-anchor="middle" style="opacity: 1; font-family: system-ui, -apple-system, 'Segoe UI', Roboto, 'Helvetica Neue', 'Noto Sans', 'Liberation Sans', Arial, sans-serif, 'Apple Color Emoji', 'Segoe UI Emoji', 'Segoe UI Symbol', 'Noto Color Emoji'; font-size: 14px; fill: rgb(100, 100, 100); fill-opacity: 1; white-space: pre;">Unique molecules</text></g></g></svg>