<svg class="main-svg" xmlns="http://www.w3.org/2000/svg" xmlns:xlink="http://www.w3.org/1999/xlink" width="2200" height="1000" style="" viewBox="0 0 1100 500"><rect x="0" y="0" width="1100" height="500" style="fill: rgb(255, 255, 255); fill-opacity: 1;"/><defs id="defs-507216"><g class="clips"><clipPath id="clip507216xyplot" class="plotclip"><rect width="1018" height="385"/></clipPath><clipPath class="axesclip" id="clip507216x"><rect x="60" y="0" width="1018" height="500"/></clipPath><clipPath class="axesclip" id="clip507216y"><rect x="0" y="50" width="1100" height="385"/></clipPath><clipPath class="axesclip" id="clip507216xy"><rect x="60" y="50" width="1018" height="385"/></clipPath></g><g class="gradients"/><g class="patterns"/></defs><g class="bglayer"/><g class="layer-below"><g class="imagelayer"/><g class="shapelayer"/></g><g class="cartesianlayer"><g class="subplot xy"><g class="layer-subplot"><g class="shapelayer"/><g class="imagelayer"/></g><g class="minor-gridlayer"><g class="x"/><g class="y"/></g><g class="gridlayer"><g class="x"><path class="xgrid crisp" transform="translate(159.95999999999998,0)" d="M0,50v385" style="stroke: rgb(128, 128, 128); stroke-opacity: 0.15; stroke-width: 1px;"/><path class="xgrid crisp" transform="translate(261.97,0)" d="M0,50v385" style="stroke: rgb(128, 128, 128); stroke-opacity: 0.15; stroke-width: 1px;"/><path class="xgrid crisp" transform="translate(363.97,0)" d="M0,50v385" style="stroke: rgb(128, 128, 128); stroke-opacity: 0.15; stroke-width: 1px;"/><path class="xgrid crisp" transform="translate(465.98,0)" d="M0,50v385" style="stroke: rgb(128, 128, 128); stroke-opacity: 0.15; stroke-width: 1px;"/><path class="xgrid crisp" transform="translate(567.98,0)" d="M0,50v385" style="stroke: rgb(128, 128, 128); stroke-opacity: 0.15; stroke-width: 1px;"/><path class="xgrid crisp" transform="translate(669.98,0)" d="M0,50v385" style="stroke: rgb(128, 128, 128); stroke-opacity: 0.15; stroke-width: 1px;"/><path class="xgrid crisp" transform="translate(771.99,0)" d="M0,50v385" style="stroke: rgb(128, 128, 128); stroke-opacity: 0.15; stroke-width: 1px;"/><path class="xgrid crisp" transform="translate(873.99,0)" d="M0,50v385" style="stroke: rgb(128, 128, 128); stroke-opacity: 0.15; stroke-width: 1px;"/><path class="xgrid crisp" transform="translate(976,0)" d="M0,50v385" style="stroke: rgb(128, 128, 128); stroke-opacity: 0.15; stroke-width: 1px;"/></g><g class="y"><path class="ygrid crisp" transform="translate(0,388.33)" d="M60,0h1018" style="stroke: rgb(128, 128, 128); stroke-opacity: 0.15; stroke-width: 1px;"/><path class="ygrid crisp" transform="translate(0,335.89)" d="M60,0h1018" style="stroke: rgb(128, 128, 128); stroke-opacity: 0.15; stroke-width: 1px;"/><path class="ygrid crisp" transform="translate(0,283.46000000000004)" d="M60,0h1018" style="stroke: rgb(128, 128, 128); stroke-opacity: 0.15; stroke-width: 1px;"/><path class="ygrid crisp" transform="translate(0,231.02)" d="M60,0h1018" style="stroke: rgb(128, 128, 128); stroke-opacity: 0.15; stroke-width: 1px;"/><path class="ygrid crisp" transform="translate(0,178.58)" d="M60,0h1018" style="stroke: rgb(128, 128, 128); stroke-opacity: 0.15; stroke-width: 1px;"/><path class="ygrid crisp" transform="translate(0,126.14)" d="M60,0h1018" style="stroke: rgb(128, 128, 128); stroke-opacity: 0.15; stroke-width: 1px;"/><path class="ygrid crisp" transform="translate(0,73.71000000000001)" d="M60,0h1018" style="stroke: rgb(128, 128, 128); stroke-opacity: 0.15; stroke-width: 1px;"/></g></g><g class="zerolinelayer"/><g class="layer-between"><g class="shapelayer"/><g class="imagelayer"/></g><path class="xlines-below"/><path class="ylines-below"/><g class="overlines-below"/><g class="xaxislayer-below"/><g class="yaxislayer-below"/><g class="overaxes-below"/><g class="overplot"><g class="xy" transform="translate(60,50)" clip-path="url(#clip507216xyplot)"><g class="scatterlayer mlayer"><g class="trace scatter trace86dcc0" style="stroke-miterlimit: 2; opacity: 1;"><g class="fills"/><g class="errorbars"/><g class="lines"><path class="js-line" d="M0,26.45L6.12,89.04L10.2,115.84L16.32,140.91L20.4,151.68L30.6,170.98L36.72,180.11L46.92,191.05L51,194.73L57.12,200.81L61.2,203.27L71.4,210.37L77.52,214.01L81.6,217.37L87.72,219.55L91.8,222.37L97.92,225.36L102,224.96L108.12,228.19L122.4,234.65L128.53,236.08L132.61,238.57L138.73,239.56L142.81,241.38L148.93,242.51L153.01,243.58L159.13,245.98L163.21,247.66L169.33,248.97L179.53,251.79L183.61,251.04L189.73,253.21L193.81,255.73L199.93,256.91L204.01,259.19L210.13,258.84L214.21,261.03L220.33,262.12L224.41,264.85L234.61,265.12L240.73,266.63L244.81,265.96L250.93,267.03L255.01,267.03L261.13,270.45L265.21,272.89L271.33,271.88L275.41,271.16L281.53,271.28L285.61,270.69L291.73,275.19L295.81,276.51L301.93,275.91L306.01,279.57L312.13,281.55L316.21,278.07L322.33,279.57L326.41,281.37L332.53,279.92L336.61,285.22L342.73,284.35L348.85,283.72L352.93,285.89L359.05,287.79L363.13,287.55L369.25,290.69L373.33,287.55L379.45,293.06L383.54,291.85L389.66,287.79L393.74,290.41L399.86,289.6L403.94,292.45L414.14,295.01L420.26,293.69L424.34,299.51L430.46,292.45L434.54,294.02L440.66,290.98L444.74,297.91L450.86,298.7L454.94,301.68L461.06,300.35L465.14,298.7L471.26,305.11L475.34,303.58L481.46,303.58L485.54,309.16L491.66,299.93L495.74,299.93L501.86,309.8L505.94,307.34L512.06,305.65L516.14,309.8L522.26,307.34L532.46,308.54L536.54,308.54L542.66,309.8L546.74,317.46L552.86,315.71L556.94,311.84L563.06,313.31L567.14,309.16L573.26,313.31L577.34,311.84L583.46,306.76L587.54,319.36L593.66,306.76L597.74,313.31L603.86,307.34L607.94,314.88L614.06,317.46L618.14,313.31L624.26,332.36L628.34,317.46L634.46,319.36L638.55,318.39L644.67,321.44L648.75,316.57L654.87,321.44L658.95,321.44L665.07,315.71L669.15,332.36L675.27,323.71L681.39,320.38L685.47,329.1L691.59,329.1L695.67,330.67L701.79,323.71L705.87,322.55L711.99,322.55L716.07,323.71L722.19,327.63L726.27,332.36L732.39,322.55L736.47,332.36L742.59,330.67L746.67,324.95L752.79,343.41L756.87,336.16L762.99,330.67L773.19,334.18L777.27,329.1L783.39,330.67L787.47,326.25L793.59,336.16L797.67,336.16L803.79,332.36L807.87,332.36L813.99,336.16L818.07,332.36L824.19,326.25L828.27,334.18L838.47,334.18L844.59,336.16L848.67,338.33L854.79,346.45L858.87,334.18L864.99,330.67L869.07,346.45L875.19,330.67L879.27,346.45L885.39,349.96L889.47,340.73L895.6,336.16L899.68,338.33L905.8,338.33L909.88,338.33L916,340.73L920.08,340.73L926.2,343.41L930.28,340.73L936.4,346.45L940.48,349.96L946.6,346.45L950.68,343.41L956.8,346.45L960.88,338.33L967,354.12L971.08,365.75L977.2,343.41L981.28,338.33L987.4,359.2L991.48,354.12L997.6,349.96L1001.68,354.12L1007.8,340.73L1011.88,343.41L1018,365.75" style="vector-effect: none; fill: none; stroke: rgb(124, 181, 236); stroke-opacity: 1; stroke-width: 2px; opacity: 1;"/></g><g class="points"/><g class="text"/></g><g class="trace scatter traceb6e6a9" style="stroke-miterlimit: 2; opacity: 1;"><g class="fills"/><g class="errorbars"/><g class="lines"><path class="js-line" d="M0,26.33L6.12,83.8L10.2,110.12L16.32,136.37L20.4,148.38L26.52,162.48L30.6,169.64L36.72,179.41L40.8,184.33L51,195.74L57.12,201.01L67.32,208.38L71.4,211.71L77.52,214.6L81.6,217.81L87.72,221.55L91.8,221.79L102,227.6L108.12,229.55L128.53,236.58L132.61,236.81L138.73,240.1L142.81,240.59L153.01,243.27L159.13,243.06L163.21,246.62L169.33,246.95L173.41,248.7L179.53,249.29L183.61,250.51L189.73,251.39L193.81,251.79L199.93,255.37L204.01,255.19L210.13,256.91L220.33,258.29L224.41,261.96L230.53,262.04L234.61,258.7L240.73,262.61L244.81,266.83L250.93,265.96L255.01,264.4L265.21,267.53L271.33,266.53L281.53,269.55L285.61,268.57L291.73,270L295.81,273.54L301.93,273.02L306.01,276.51L312.13,274.49L316.21,275.62L326.41,274.49L332.53,277.59L336.61,279.23L342.73,276.66L348.85,280.81L352.93,279.92L369.25,283.52L373.33,282.91L379.45,282.12L383.54,283.72L389.66,283.31L393.74,286.35L399.86,287.06L403.94,286.12L410.06,289.86L414.14,285.44L420.26,288.29L424.34,284.78L430.46,289.86L434.54,291.55L440.66,289.07L444.74,292.45L450.86,294.02L454.94,293.69L461.06,293.06L465.14,293.69L471.26,297.15L475.34,293.38L481.46,292.14L485.54,295.01L491.66,296.06L495.74,292.75L501.86,297.91L505.94,296.06L512.06,297.53L516.14,304.08L522.26,294.68L526.34,303.09L536.54,298.3L542.66,297.53L546.74,301.23L552.86,298.7L556.94,308.54L563.06,309.16L567.14,302.14L573.26,298.3L577.34,302.14L583.46,300.35L587.54,303.09L593.66,310.46L597.74,301.68L603.86,311.14L607.94,307.93L614.06,311.14L618.14,311.84L624.26,310.46L628.34,309.16L634.46,309.8L638.55,313.31L644.67,311.84L648.75,303.58L654.87,304.08L658.95,312.57L665.07,313.31L675.27,315.71L681.39,311.84L685.47,306.76L691.59,310.46L695.67,316.57L701.79,315.71L705.87,317.46L711.99,312.57L716.07,311.84L722.19,321.44L726.27,317.46L732.39,322.55L736.47,318.39L742.59,313.31L746.67,318.39L752.79,318.39L756.87,319.36L762.99,326.25L767.07,322.55L773.19,323.71L777.27,319.36L783.39,323.71L787.47,321.44L793.59,321.44L797.67,317.46L803.79,326.25L807.87,318.39L813.99,319.36L818.07,319.36L824.19,318.39L828.27,319.36L834.39,319.36L844.59,319.36L848.67,317.46L854.79,317.46L858.87,323.71L864.99,326.25L869.07,322.55L875.19,323.71L879.27,327.63L885.39,327.63L889.47,329.1L895.6,329.1L899.68,324.95L905.8,323.71L909.88,320.38L916,323.71L920.08,323.71L926.2,338.33L930.28,323.71L936.4,322.55L940.48,322.55L946.6,334.18L950.68,349.96L956.8,327.63L960.88,326.25L967,330.67L971.08,340.73L977.2,346.45L981.28,338.33L987.4,332.36L991.48,322.55L997.6,332.36L1001.68,330.67L1007.8,324.95L1011.88,336.16L1018,324.95" style="vector-effect: none; fill: none; stroke: rgb(67, 67, 72); stroke-opacity: 1; stroke-width: 2px; opacity: 1;"/></g><g class="points"/><g class="text"/></g><g class="trace scatter trace5ffc72" style="stroke-miterlimit: 2; opacity: 1;"><g class="fills"/><g class="errorbars"/><g class="lines"><path class="js-line" d="M0,19.25L6.12,85.68L10.2,112.87L16.32,139.04L20.4,151.45L30.6,172.97L36.72,183.23L46.92,195.92L51,199.68L67.32,213.33L71.4,215.96L77.52,221.39L81.6,223.1L97.92,230.17L102,232.65L112.2,237.24L118.32,238.71L132.61,245.09L138.73,246.38L142.81,248.22L148.93,248.61L159.13,253.71L163.21,252.89L169.33,253.93L173.41,256.98L179.53,259.98L183.61,257.76L189.73,259.19L193.81,262.36L199.93,264.76L204.01,259.76L210.13,265.67L214.21,266.24L224.41,268.36L230.53,269.88L234.61,268.78L240.73,272.13L244.81,271.76L250.93,273.81L255.01,273.41L261.13,278.39L265.21,275.91L271.33,278.56L275.41,276.51L281.53,276.36L285.61,279.57L291.73,279.74L295.81,281.93L301.93,282.51L306.01,280.45L312.13,282.91L316.21,288.04L322.33,285.89L326.41,288.04L332.53,285.67L336.61,284.35L342.73,286.59L352.93,293.69L359.05,290.14L363.13,288.55L369.25,296.06L373.33,289.6L379.45,295.01L383.54,290.98L389.66,293.06L393.74,293.69L399.86,299.51L403.94,296.06L410.06,295.36L414.14,302.61L420.26,301.23L424.34,295.7L430.46,300.35L434.54,301.68L440.66,297.91L444.74,302.14L450.86,300.79L454.94,301.23L461.06,303.58L465.14,304.08L471.26,311.84L475.34,303.09L481.46,311.14L485.54,308.54L491.66,306.2L495.74,301.68L501.86,304.08L505.94,303.58L512.06,305.65L516.14,310.46L522.26,302.14L526.34,309.8L532.46,313.31L536.54,316.57L542.66,312.57L546.74,308.54L552.86,315.71L556.94,318.39L563.06,311.14L567.14,317.46L573.26,304.59L577.34,313.31L583.46,320.38L587.54,307.93L593.66,316.57L597.74,316.57L603.86,321.44L607.94,316.57L614.06,321.44L618.14,318.39L624.26,319.36L628.34,317.46L634.46,318.39L638.55,319.36L644.67,316.57L648.75,319.36L654.87,319.36L658.95,311.14L665.07,329.1L669.15,329.1L675.27,313.31L681.39,323.71L685.47,327.63L691.59,321.44L695.67,320.38L701.79,327.63L705.87,320.38L711.99,327.63L716.07,334.18L722.19,332.36L726.27,326.25L732.39,330.67L736.47,354.12L742.59,334.18L746.67,336.16L752.79,326.25L756.87,330.67L762.99,340.73L767.07,349.96L777.27,324.95L783.39,336.16L787.47,330.67L793.59,329.1L797.67,343.41L803.79,343.41L807.87,323.71L813.99,336.16L818.07,330.67L824.19,340.73L828.27,332.36L834.39,329.1L838.47,354.12L844.59,346.45L848.67,336.16L854.79,349.96L858.87,324.95L864.99,338.33L869.07,324.95L875.19,340.73L879.27,336.16L885.39,338.33L889.47,338.33L895.6,354.12L899.68,330.67L905.8,334.18L909.88,329.1L916,338.33L920.08,338.33L926.2,329.1L930.28,338.33L936.4,354.12L940.48,330.67L946.6,343.41L950.68,336.16L956.8,343.41L960.88,346.45L967,349.96L971.08,340.73L977.2,365.75L981.28,349.96L987.4,349.96L991.48,343.41L997.6,359.2L1001.68,354.12L1007.8,359.2L1011.88,346.45L1018,365.75" style="vector-effect: none; fill: none; stroke: rgb(144, 237, 125); stroke-opacity: 1; stroke-width: 2px; opacity: 1;"/></g><g class="points"/><g class="text"/></g><g class="trace scatter trace46b4bb" style="stroke-miterlimit: 2; opacity: 1;"><g class="fills"/><g class="errorbars"/><g class="lines"><path class="js-line" d="M0,48.55L10.2,105.71L16.32,134.03L20.4,146.78L26.52,161L30.6,169.13L36.72,179.34L40.8,185.76L46.92,191.74L57.12,201.89L61.2,205.55L81.6,220.01L87.72,222.51L97.92,226.98L102,227.53L108.12,230.16L112.2,234.46L118.32,236.71L122.4,236.73L128.53,239.47L132.61,238.26L138.73,240.38L142.81,242.68L148.93,243.76L153.01,245.74L159.13,248.66L163.21,247.74L179.53,250.36L183.61,252.84L189.73,255.43L193.81,255.73L199.93,254.9L204.01,255.37L210.13,258.5L214.21,257.96L224.41,258.98L230.53,261.1L234.61,260.65L240.73,261.88L244.81,260.8L250.93,264.49L255.01,263.11L261.13,267.43L265.21,267.12L271.33,268.67L275.41,269.88L281.53,268.15L285.61,269.55L291.73,268.46L295.81,271.16L301.93,271.4L306.01,271.4L312.13,273.41L316.21,273.54L322.33,277.28L326.41,274.77L332.53,276.36L336.61,276.81L342.73,278.72L348.85,278.72L352.93,276.81L359.05,273.94L363.13,278.56L373.33,281.37L379.45,286.12L383.54,281.55L389.66,282.71L393.74,284.14L399.86,285.44L403.94,287.06L410.06,286.82L414.14,286.12L420.26,285.89L424.34,283.11L430.46,289.07L434.54,287.3L440.66,285.67L444.74,283.52L450.86,285.89L454.94,296.42L461.06,286.12L465.14,287.55L471.26,288.04L475.34,292.45L481.46,293.69L485.54,286.35L491.66,292.14L495.74,293.38L501.86,291.55L512.06,290.69L516.14,292.14L526.34,298.7L532.46,296.06L536.54,291.55L542.66,296.06L546.74,299.51L552.86,301.68L556.94,294.02L563.06,309.16L567.14,302.14L573.26,299.1L577.34,303.09L583.46,300.79L587.54,299.1L593.66,301.68L597.74,300.79L603.86,309.16L607.94,304.59L614.06,307.34L618.14,300.79L624.26,300.79L628.34,300.35L634.46,304.08L638.55,299.51L644.67,303.09L648.75,306.76L654.87,299.93L658.95,301.23L665.07,299.93L669.15,304.59L675.27,301.68L681.39,312.57L685.47,310.46L691.59,311.14L695.67,304.08L701.79,306.76L705.87,316.57L711.99,314.08L716.07,306.2L722.19,307.93L726.27,311.14L732.39,305.11L736.47,314.88L742.59,316.57L746.67,311.84L752.79,303.09L756.87,315.71L762.99,314.08L767.07,315.71L773.19,317.46L777.27,312.57L783.39,306.76L787.47,317.46L793.59,318.39L797.67,311.14L803.79,306.76L807.87,314.88L813.99,313.31L818.07,310.46L824.19,329.1L828.27,315.71L834.39,312.57L838.47,319.36L844.59,324.95L848.67,322.55L854.79,315.71L858.87,319.36L864.99,322.55L869.07,320.38L875.19,324.95L879.27,316.57L885.39,314.08L889.47,322.55L895.6,317.46L899.68,322.55L909.88,318.39L916,327.63L920.08,321.44L926.2,316.57L936.4,327.63L940.48,315.71L946.6,320.38L950.68,316.57L956.8,318.39L960.88,334.18L967,329.1L971.08,319.36L977.2,322.55L981.28,321.44L987.4,324.95L991.48,334.18L997.6,336.16L1001.68,327.63L1007.8,334.18L1011.88,330.67L1018,320.38" style="vector-effect: none; fill: none; stroke: rgb(247, 163, 92); stroke-opacity: 1; stroke-width: 2px; opacity: 1;"/></g><g class="points"/><g class="text"/></g><g class="trace scatter trace260b2d" style="stroke-miterlimit: 2; opacity: 1;"><g class="fills"/><g class="errorbars"/><g class="lines"><path class="js-line" d="M0,31.08L6.12,87.94L10.2,114.59L16.32,141.46L20.4,153.15L30.6,172.96L36.72,182.47L40.8,187.99L46.92,194.19L61.2,205.9L67.32,210.03L71.4,212.77L77.52,215.81L81.6,219.02L87.72,220.9L91.8,222.64L97.92,226.35L112.2,230.98L118.32,233.69L132.61,239.44L138.73,240.44L142.81,243.09L148.93,243.73L153.01,245.4L159.13,247.07L163.21,249.61L169.33,248.57L173.41,249.11L179.53,253.54L183.61,252.15L189.73,254.27L193.81,256.53L199.93,255.13L204.01,258.23L210.13,259.55L224.41,261.03L230.53,263.19L234.61,262.61L240.73,263.11L244.81,265.86L250.93,265.12L255.01,266.24L261.13,268.78L265.21,268.15L271.33,268.25L275.41,272.26L281.53,269.88L295.81,275.33L301.93,275.77L306.01,279.06L312.13,279.06L316.21,276.06L322.33,273.68L326.41,279.57L332.53,281.18L336.61,281.74L342.73,280.27L348.85,279.74L352.93,283.93L359.05,282.91L363.13,283.72L369.25,282.91L373.33,285.44L379.45,283.31L383.54,291.85L389.66,288.55L393.74,287.3L399.86,286.82L403.94,290.69L410.06,291.26L414.14,290.14L424.34,291.85L430.46,288.04L434.54,291.85L440.66,296.06L450.86,292.45L454.94,297.15L461.06,291.85L465.14,295.36L471.26,292.45L475.34,301.23L481.46,300.35L485.54,294.34L491.66,298.3L495.74,294.34L505.94,301.23L512.06,302.14L516.14,308.54L522.26,303.58L526.34,297.91L532.46,302.14L536.54,301.23L542.66,302.14L546.74,305.65L552.86,303.09L556.94,304.08L563.06,309.8L567.14,305.11L573.26,302.14L577.34,307.93L583.46,312.57L587.54,308.54L593.66,310.46L597.74,302.14L603.86,302.61L607.94,310.46L614.06,309.16L618.14,309.16L624.26,305.65L628.34,314.88L634.46,316.57L638.55,309.8L644.67,314.88L648.75,313.31L654.87,314.88L658.95,315.71L665.07,309.16L669.15,322.55L675.27,314.08L681.39,315.71L685.47,314.88L691.59,315.71L695.67,313.31L701.79,312.57L705.87,319.36L711.99,326.25L716.07,316.57L722.19,318.39L726.27,311.84L732.39,321.44L736.47,317.46L742.59,334.18L746.67,318.39L752.79,318.39L756.87,322.55L762.99,329.1L767.07,321.44L773.19,324.95L777.27,334.18L783.39,329.1L787.47,323.71L797.67,321.44L803.79,321.44L807.87,322.55L813.99,334.18L828.27,321.44L834.39,324.95L838.47,324.95L844.59,334.18L848.67,324.95L854.79,324.95L858.87,329.1L864.99,334.18L869.07,330.67L875.19,321.44L879.27,319.36L885.39,334.18L889.47,332.36L895.6,324.95L899.68,330.67L905.8,336.16L909.88,329.1L916,326.25L920.08,334.18L926.2,322.55L930.28,338.33L936.4,323.71L940.48,336.16L946.6,334.18L950.68,319.36L956.8,323.71L960.88,336.16L967,326.25L971.08,336.16L977.2,334.18L981.28,338.33L987.4,338.33L991.48,330.67L997.6,330.67L1001.68,330.67L1007.8,343.41L1011.88,334.18L1018,346.45" style="vector-effect: none; fill: none; stroke: rgb(128, 133, 233); stroke-opacity: 1; stroke-width: 2px; opacity: 1;"/></g><g class="points"/><g class="text"/></g><g class="trace scatter trace6e63f5" style="stroke-miterlimit: 2; opacity: 1;"><g class="fills"/><g class="errorbars"/><g class="lines"><path class="js-line" d="M0,25.48L6.12,74.54L10.2,99.51L16.32,125.38L20.4,136.43L30.6,155.96L36.72,165.46L40.8,170.79L46.92,176.95L51,181.37L57.12,186.68L77.52,201.06L81.6,203.78L91.8,207.68L97.92,211.48L102,212.31L108.12,215.06L112.2,217.08L118.32,218.76L122.4,221.13L128.53,222.92L132.61,224.28L138.73,224.73L142.81,227.01L148.93,228.12L159.13,231.22L163.21,233.55L169.33,233.48L173.41,235.75L183.61,236.45L189.73,239.29L199.93,241.13L204.01,240.75L210.13,244.05L214.21,244.2L224.41,244.86L230.53,246.7L234.61,248.39L240.73,248.48L244.81,249.42L250.93,249.24L261.13,251.29L265.21,252.78L271.33,252.62L275.41,254.27L285.61,254.55L291.73,255.67L295.81,255.85L301.93,258.23L312.13,258.09L316.21,257.43L326.41,260.8L332.53,260.28L336.61,262.36L342.73,263.36L348.85,262.36L352.93,263.53L359.05,265.03L363.13,264.4L369.25,266.05L373.33,265.21L379.45,263.7L383.54,268.78L389.66,264.76L393.74,268.57L399.86,265.21L403.94,269.77L410.06,266.93L414.14,269L424.34,273.68L430.46,271.28L440.66,272.76L444.74,272.26L450.86,273.02L454.94,277.12L461.06,278.07L465.14,276.81L471.26,277.43L475.34,278.89L481.46,276.36L485.54,273.81L491.66,278.07L495.74,275.33L501.86,276.36L505.94,280.81L512.06,281.74L516.14,275.62L526.34,280.09L532.46,284.35L536.54,282.91L542.66,283.72L546.74,281.37L552.86,281.18L556.94,283.52L563.06,283.72L567.14,280.27L573.26,284.14L577.34,286.59L583.46,287.06L587.54,286.12L593.66,285.89L597.74,288.55L603.86,287.55L607.94,285L614.06,296.06L618.14,291.55L624.26,287.3L628.34,291.55L634.46,287.3L638.55,293.38L644.67,290.41L648.75,289.86L654.87,291.55L658.95,291.85L665.07,289.07L669.15,283.31L675.27,293.38L681.39,296.78L685.47,292.75L701.79,295.01L705.87,291.26L716.07,293.38L722.19,292.45L726.27,292.45L732.39,295.36L736.47,289.6L742.59,299.1L746.67,301.23L752.79,296.06L756.87,297.15L762.99,293.69L767.07,297.91L773.19,296.42L777.27,304.08L783.39,297.91L787.47,298.7L793.59,301.23L797.67,299.1L803.79,298.3L807.87,299.1L813.99,305.11L818.07,299.93L824.19,300.35L828.27,301.23L834.39,301.68L838.47,299.93L844.59,306.2L848.67,301.68L854.79,301.68L858.87,301.23L864.99,307.93L869.07,301.68L875.19,302.61L885.39,301.68L889.47,304.08L895.6,306.76L899.68,307.34L905.8,306.76L909.88,300.79L916,312.57L920.08,310.46L926.2,308.54L930.28,304.08L936.4,306.76L940.48,300.35L946.6,306.76L950.68,315.71L956.8,313.31L960.88,315.71L967,306.2L971.08,308.54L977.2,315.71L981.28,309.8L987.4,307.34L991.48,309.8L997.6,311.14L1001.68,310.46L1007.8,307.34L1011.88,315.71L1018,306.76" style="vector-effect: none; fill: none; stroke: rgb(241, 92, 128); stroke-opacity: 1; stroke-width: 2px; opacity: 1;"/></g><g class="points"/><g class="text"/></g><g class="trace scatter tracea480cd" style="stroke-miterlimit: 2; opacity: 1;"><g class="fills"/><g class="errorbars"/><g class="lines"><path class="js-line" d="M0,45.15L10.2,113.64L16.32,141.19L20.4,153.49L26.52,166.87L36.72,183.53L40.8,188.66L46.92,194.3L51,199.26L67.32,211.47L71.4,213.95L87.72,223.02L91.8,224.39L97.92,228.91L102,229.27L112.2,233.69L118.32,235.23L122.4,237.26L128.53,239.17L132.61,240.25L138.73,240.19L142.81,243.44L148.93,246.26L153.01,245.51L159.13,247.91L169.33,249.33L173.41,251.54L189.73,253.49L193.81,255.79L199.93,256.1L204.01,254.78L210.13,260.05L214.21,259.69L220.33,258.64L224.41,265.49L230.53,260.35L234.61,262.61L240.73,265.12L244.81,264.58L250.93,267.73L255.01,268.46L261.13,270.11L265.21,268.46L271.33,268.89L275.41,267.22L281.53,274.91L285.61,273.28L291.73,273.02L295.81,276.36L301.93,271.76L306.01,277.28L312.13,276.21L316.21,272.63L322.33,279.92L326.41,276.81L332.53,279.57L336.61,280.09L342.73,279.57L348.85,283.11L352.93,279.23L359.05,280.09L363.13,279.06L369.25,282.12L373.33,284.14L379.45,284.57L383.54,285.22L389.66,283.31L393.74,290.41L399.86,290.14L403.94,285.22L410.06,288.04L414.14,289.86L420.26,289.33L424.34,293.38L430.46,292.45L434.54,289.86L440.66,290.14L444.74,294.68L450.86,294.34L454.94,295.7L461.06,294.02L465.14,291.85L471.26,296.06L475.34,296.06L481.46,300.79L485.54,295.36L491.66,298.7L495.74,301.68L501.86,301.68L505.94,296.78L512.06,301.23L516.14,303.09L522.26,299.93L526.34,299.1L532.46,299.93L536.54,301.23L542.66,305.65L546.74,307.93L552.86,305.11L556.94,301.23L563.06,307.93L567.14,304.08L573.26,306.76L577.34,305.65L583.46,300.79L587.54,303.09L593.66,302.61L597.74,304.08L603.86,310.46L607.94,303.09L614.06,305.65L618.14,303.09L624.26,304.59L628.34,311.84L634.46,306.76L638.55,312.57L644.67,312.57L648.75,314.88L654.87,311.14L658.95,307.93L665.07,312.57L669.15,309.16L675.27,318.39L681.39,311.84L685.47,309.8L695.67,317.46L701.79,313.31L705.87,318.39L711.99,313.31L716.07,319.36L722.19,311.84L726.27,310.46L732.39,312.57L736.47,318.39L742.59,317.46L746.67,314.08L752.79,311.14L762.99,326.25L767.07,322.55L773.19,324.95L777.27,332.36L783.39,321.44L787.47,317.46L793.59,322.55L797.67,312.57L803.79,326.25L807.87,322.55L813.99,316.57L818.07,316.57L824.19,322.55L828.27,318.39L834.39,326.25L838.47,324.95L844.59,324.95L848.67,322.55L854.79,324.95L858.87,324.95L864.99,318.39L869.07,321.44L875.19,324.95L879.27,338.33L885.39,323.71L889.47,320.38L895.6,322.55L899.68,332.36L909.88,327.63L916,336.16L920.08,329.1L926.2,336.16L930.28,322.55L936.4,319.36L940.48,330.67L946.6,324.95L950.68,326.25L956.8,336.16L960.88,336.16L967,329.1L971.08,324.95L977.2,334.18L981.28,334.18L987.4,330.67L991.48,338.33L997.6,332.36L1001.68,326.25L1007.8,327.63L1011.88,330.67L1018,332.36" style="vector-effect: none; fill: none; stroke: rgb(228, 211, 84); stroke-opacity: 1; stroke-width: 2px; opacity: 1;"/></g><g class="points"/><g class="text"/></g><g class="trace scatter trace6595f8" style="stroke-miterlimit: 2; opacity: 1;"><g class="fills"/><g class="errorbars"/><g class="lines"><path class="js-line" d="M0,44.03L6.12,92.53L10.2,118.79L16.32,146.13L20.4,157.6L26.52,169.84L30.6,176.31L40.8,190.01L46.92,195.66L51,199.71L57.12,204.29L61.2,207.3L67.32,210.39L71.4,212.47L77.52,217.15L87.72,222.19L91.8,222.47L102,226.76L108.12,231L112.2,231.41L118.32,233.89L122.4,233.57L128.53,236.06L132.61,238.03L138.73,239.14L142.81,241.74L148.93,241.06L153.01,242.78L159.13,242.58L163.21,245.86L169.33,245.13L173.41,248.04L179.53,248.7L183.61,249.7L189.73,249.24L193.81,253.27L199.93,253.27L210.13,254.49L214.21,256.22L220.33,255.43L224.41,257.63L240.73,259.84L244.81,262.36L250.93,262.45L255.01,263.27L261.13,262.61L265.21,264.49L271.33,266.05L275.41,264.85L281.53,266.44L285.61,263.96L291.73,268.04L295.81,268.25L301.93,268.46L306.01,270.92L312.13,268.78L316.21,272.51L322.33,273.41L326.41,270.22L332.53,270.92L336.61,272.76L342.73,277.28L348.85,273.15L352.93,275.62L359.05,273.15L363.13,276.06L369.25,274.91L373.33,276.81L379.45,278.07L383.54,279.23L389.66,282.71L399.86,277.75L403.94,277.28L410.06,280.63L414.14,285L420.26,284.78L424.34,283.11L430.46,287.79L434.54,283.31L444.74,283.93L450.86,285L454.94,287.06L461.06,286.12L471.26,284.57L475.34,288.04L481.46,288.55L485.54,287.3L491.66,286.35L495.74,293.69L501.86,290.69L505.94,291.55L512.06,294.34L516.14,290.41L522.26,292.75L526.34,300.35L532.46,292.45L536.54,296.78L542.66,296.42L546.74,293.69L552.86,302.14L556.94,297.15L563.06,299.1L567.14,294.68L573.26,294.68L577.34,298.3L583.46,293.69L587.54,299.51L593.66,295.01L597.74,302.14L603.86,302.61L607.94,305.11L614.06,298.3L618.14,299.51L624.26,296.06L628.34,302.14L634.46,305.11L638.55,303.09L644.67,301.23L648.75,301.23L654.87,302.61L658.95,302.14L665.07,306.76L669.15,303.58L681.39,301.23L685.47,298.7L691.59,306.76L695.67,305.65L701.79,315.71L705.87,304.59L711.99,309.16L716.07,306.76L726.27,307.93L732.39,303.09L736.47,314.88L742.59,311.14L746.67,311.14L752.79,309.16L756.87,314.88L762.99,309.8L767.07,313.31L773.19,307.34L777.27,304.59L783.39,323.71L787.47,307.93L793.59,309.8L797.67,314.88L803.79,311.14L807.87,306.76L813.99,324.95L818.07,315.71L824.19,315.71L828.27,312.57L834.39,309.8L838.47,317.46L844.59,314.88L848.67,314.88L854.79,317.46L864.99,317.46L869.07,316.57L875.19,314.08L879.27,323.71L885.39,329.1L889.47,307.93L895.6,330.67L899.68,330.67L905.8,314.88L909.88,320.38L916,324.95L920.08,315.71L930.28,321.44L936.4,321.44L940.48,323.71L946.6,329.1L950.68,321.44L956.8,319.36L960.88,332.36L967,324.95L971.08,326.25L977.2,315.71L981.28,318.39L987.4,318.39L991.48,332.36L997.6,327.63L1001.68,323.71L1007.8,327.63L1011.88,327.63L1018,334.18" style="vector-effect: none; fill: none; stroke: rgb(43, 144, 143); stroke-opacity: 1; stroke-width: 2px; opacity: 1;"/></g><g class="points"/><g class="text"/></g><g class="trace scatter traceea13cf" style="stroke-miterlimit: 2; opacity: 1;"><g class="fills"/><g class="errorbars"/><g class="lines"><path class="js-line" d="M0,43.83L10.2,113.93L16.32,141.27L20.4,152.56L26.52,164.54L30.6,171.8L36.72,180.59L40.8,185.76L46.92,191.55L61.2,204.08L67.32,207.94L71.4,210.65L77.52,213.41L81.6,216.24L87.72,218.19L91.8,221.2L97.92,224.19L102,224.84L108.12,226.88L118.32,231.29L122.4,231.83L128.53,234.99L132.61,235.06L138.73,238.4L142.81,238.82L153.01,239.92L159.13,241.06L163.21,243.34L169.33,244.23L173.41,247.03L179.53,246.38L183.61,247.66L189.73,248.26L199.93,248.97L204.01,252.1L210.13,253.05L214.21,252.89L220.33,255.13L224.41,255.55L234.61,258.57L240.73,259.33L244.81,260.35L250.93,259.05L255.01,260.57L261.13,260.5L265.21,259.69L271.33,263.79L281.53,266.44L285.61,265.03L291.73,268.78L295.81,267.83L301.93,269.44L306.01,268.89L312.13,269.22L316.21,268.15L322.33,271.04L326.41,271.64L332.53,275.48L336.61,273.28L342.73,274.49L348.85,274.49L352.93,273.28L359.05,273.02L363.13,272.63L369.25,276.36L373.33,275.77L379.45,278.89L383.54,275.33L389.66,279.06L393.74,278.39L399.86,278.23L403.94,277.43L410.06,278.39L414.14,281L420.26,282.91L424.34,281L430.46,284.57L434.54,283.52L440.66,283.31L444.74,283.11L450.86,284.14L454.94,283.93L461.06,286.12L465.14,286.82L471.26,289.33L475.34,289.33L481.46,286.82L491.66,286.82L495.74,290.98L501.86,290.98L505.94,288.29L512.06,290.41L516.14,288.81L522.26,290.98L526.34,290.69L532.46,290.14L536.54,295.01L542.66,290.98L546.74,291.26L552.86,292.14L556.94,295.7L563.06,293.38L567.14,296.78L577.34,296.42L583.46,300.79L587.54,300.79L593.66,294.34L597.74,296.78L603.86,295.36L607.94,293.69L614.06,299.1L618.14,301.68L624.26,297.15L634.46,305.65L638.55,300.35L644.67,293.69L648.75,297.91L654.87,303.09L658.95,301.68L665.07,302.61L669.15,299.51L675.27,310.46L681.39,306.2L685.47,311.14L691.59,297.15L695.67,303.09L701.79,307.34L705.87,305.11L711.99,300.35L716.07,309.16L722.19,303.58L726.27,306.76L732.39,307.93L736.47,306.2L742.59,313.31L746.67,307.34L752.79,314.08L756.87,308.54L762.99,316.57L767.07,312.57L773.19,309.16L777.27,305.11L783.39,312.57L787.47,306.76L793.59,314.88L797.67,310.46L803.79,319.36L807.87,314.88L813.99,316.57L818.07,317.46L824.19,316.57L828.27,316.57L834.39,312.57L838.47,317.46L844.59,316.57L848.67,314.08L854.79,311.84L858.87,315.71L864.99,306.76L869.07,317.46L875.19,319.36L879.27,316.57L885.39,319.36L889.47,320.38L895.6,312.57L899.68,318.39L905.8,332.36L909.88,319.36L916,324.95L920.08,315.71L926.2,330.67L930.28,320.38L936.4,323.71L940.48,315.71L946.6,323.71L950.68,319.36L956.8,322.55L960.88,324.95L967,322.55L971.08,314.08L977.2,321.44L981.28,317.46L987.4,323.71L991.48,324.95L997.6,322.55L1001.68,330.67L1007.8,318.39L1011.88,314.88L1018,316.57" style="vector-effect: none; fill: none; stroke: rgb(244, 91, 91); stroke-opacity: 1; stroke-width: 2px; opacity: 1;"/></g><g class="points"/><g class="text"/></g><g class="trace scatter trace5b4364" style="stroke-miterlimit: 2; opacity: 1;"><g class="fills"/><g class="errorbars"/><g class="lines"><path class="js-line" d="M0,37.65L6.12,93.41L10.2,119.34L16.32,144.28L20.4,154.61L30.6,172.6L36.72,181.26L46.92,191.32L51,194.04L61.2,202.64L67.32,206.16L77.52,212.09L81.6,214.15L97.92,221.75L102,222.61L108.12,225.86L112.2,225.73L118.32,227.75L122.4,230.45L128.53,232.28L132.61,232.7L148.93,237.67L153.01,239L159.13,240.5L163.21,242.44L169.33,242.47L173.41,241.58L179.53,245.74L183.61,246.58L189.73,245.28L193.81,248L199.93,248.88L204.01,250.89L210.13,250.46L214.21,252.31L220.33,253.1L224.41,254.73L230.53,255.67L234.61,253.65L240.73,256.53L244.81,256.28L261.13,260.05L265.21,262.04L271.33,262.36L275.41,264.76L281.53,265.39L285.61,260.28L291.73,263.96L295.81,264.76L301.93,265.3L306.01,264.05L322.33,268.04L326.41,268.25L332.53,271.76L336.61,270.45L342.73,269.33L348.85,272.01L352.93,270.92L359.05,272.26L363.13,275.77L369.25,272.38L373.33,275.33L379.45,273.68L389.66,276.06L393.74,273.81L399.86,275.05L403.94,277.28L420.26,275.33L424.34,277.91L430.46,282.32L434.54,280.45L440.66,281.93L444.74,279.92L450.86,281.55L454.94,281.55L461.06,282.71L465.14,281L471.26,283.52L475.34,282.71L481.46,285.44L485.54,282.91L491.66,287.79L495.74,289.86L501.86,287.79L505.94,288.29L516.14,285.67L522.26,292.14L526.34,289.33L532.46,287.79L536.54,293.38L542.66,295.7L546.74,293.06L552.86,287.3L556.94,290.69L563.06,300.79L567.14,293.06L573.26,294.68L577.34,290.14L583.46,296.78L587.54,297.53L593.66,293.69L597.74,293.38L603.86,297.15L607.94,297.91L614.06,297.91L618.14,296.78L624.26,296.06L628.34,297.91L634.46,303.09L638.55,300.35L644.67,293.06L648.75,302.14L654.87,297.91L658.95,297.91L665.07,300.79L669.15,295.7L675.27,300.79L681.39,298.7L685.47,300.79L691.59,297.91L695.67,303.09L701.79,299.93L705.87,299.1L711.99,299.93L716.07,304.59L722.19,308.54L726.27,301.68L732.39,301.23L736.47,304.59L742.59,305.65L746.67,302.61L756.87,309.8L762.99,302.61L767.07,316.57L773.19,302.61L777.27,303.09L783.39,305.65L787.47,311.84L793.59,302.14L797.67,315.71L803.79,306.76L807.87,307.93L813.99,313.31L818.07,301.68L824.19,313.31L828.27,304.59L834.39,308.54L838.47,314.88L844.59,311.14L848.67,315.71L854.79,313.31L858.87,310.46L864.99,318.39L869.07,314.08L875.19,310.46L879.27,309.8L885.39,317.46L889.47,311.84L895.6,314.88L899.68,310.46L905.8,310.46L909.88,317.46L916,311.84L926.2,314.88L930.28,313.31L936.4,318.39L940.48,314.88L946.6,310.46L950.68,323.71L956.8,316.57L960.88,314.08L967,311.14L971.08,323.71L977.2,318.39L981.28,327.63L987.4,321.44L991.48,322.55L997.6,316.57L1001.68,322.55L1007.8,313.31L1011.88,322.55L1018,320.38" style="vector-effect: none; fill: none; stroke: rgb(145, 232, 225); stroke-opacity: 1; stroke-width: 2px; opacity: 1;"/></g><g class="points"/><g class="text"/></g><g class="trace scatter trace5cdb6f" style="stroke-miterlimit: 2; opacity: 1;"><g class="fills"/><g class="errorbars"/><g class="lines"><path class="js-line" d="M0,46.16L10.2,104.18L16.32,132.41L20.4,145.42L26.52,159.08L36.72,177.1L40.8,182.57L57.12,198.65L61.2,201.26L77.52,212.15L81.6,214.03L102,224.21L108.12,225.49L112.2,228.03L118.32,229.63L128.53,232.89L132.61,235.48L138.73,235.83L142.81,237.37L148.93,237.7L153.01,240.16L159.13,242.41L163.21,241.38L173.41,245.47L179.53,246.54L183.61,248.17L189.73,247.4L193.81,249.42L199.93,248.88L204.01,250.27L210.13,250.75L214.21,253.98L220.33,253.6L224.41,254.61L230.53,254.44L234.61,255.25L240.73,260.35L250.93,256.53L255.01,259.69L261.13,262.12L265.21,260.2L271.33,261.73L275.41,260.87L281.53,263.36L285.61,261.18L291.73,263.19L295.81,267.22L306.01,267.63L312.13,268.36L316.21,268.15L322.33,270.8L326.41,268.57L332.53,267.33L336.61,271.16L342.73,273.15L348.85,271.28L352.93,271.76L363.13,274.63L369.25,274.35L373.33,274.49L379.45,275.62L383.54,273.54L389.66,276.06L393.74,275.05L399.86,275.62L403.94,277.91L410.06,274.77L414.14,278.23L420.26,278.72L430.46,280.27L434.54,277.91L454.94,281.37L461.06,279.92L465.14,286.35L471.26,287.06L475.34,287.3L481.46,283.93L485.54,283.31L491.66,280.63L495.74,282.91L501.86,287.79L505.94,285.89L512.06,285.67L516.14,287.06L522.26,291.26L526.34,289.6L532.46,288.29L536.54,288.81L542.66,292.45L546.74,294.34L552.86,290.14L563.06,289.33L567.14,290.41L573.26,291.55L577.34,294.02L583.46,293.69L587.54,296.78L593.66,292.45L597.74,295.7L603.86,299.93L607.94,289.6L614.06,295.36L618.14,291.85L624.26,295.36L628.34,296.06L634.46,297.91L638.55,297.91L644.67,297.53L648.75,295.36L654.87,296.78L658.95,296.78L665.07,302.14L669.15,296.42L675.27,301.23L681.39,298.7L685.47,297.15L691.59,301.68L695.67,302.61L701.79,301.68L705.87,300.35L711.99,303.09L716.07,301.23L722.19,304.59L726.27,302.14L732.39,304.59L736.47,305.65L742.59,302.14L746.67,301.23L752.79,301.23L762.99,309.16L767.07,306.2L773.19,307.34L777.27,305.65L783.39,303.09L787.47,309.8L793.59,305.11L797.67,303.09L803.79,304.08L807.87,307.93L813.99,309.16L818.07,304.08L824.19,306.2L828.27,306.2L834.39,305.11L838.47,309.16L844.59,306.2L848.67,314.08L854.79,309.16L858.87,321.44L869.07,309.16L875.19,313.31L879.27,314.88L885.39,321.44L889.47,310.46L895.6,314.88L899.68,313.31L905.8,316.57L909.88,308.54L916,317.46L920.08,306.76L926.2,327.63L930.28,312.57L936.4,318.39L940.48,315.71L946.6,320.38L950.68,321.44L956.8,314.08L960.88,314.88L967,321.44L971.08,311.84L977.2,314.08L981.28,319.36L987.4,311.14L991.48,311.84L997.6,316.57L1001.68,316.57L1007.8,318.39L1011.88,324.95L1018,323.71" style="vector-effect: none; fill: none; stroke: rgb(124, 181, 236); stroke-opacity: 1; stroke-width: 2px; opacity: 1;"/></g><g class="points"/><g class="text"/></g><g class="trace scatter trace46ae64" style="stroke-miterlimit: 2; opacity: 1;"><g class="fills"/><g class="errorbars"/><g class="lines"><path class="js-line" d="M0,62.44L16.32,142.5L20.4,155.2L30.6,175.66L36.72,186.36L40.8,190.77L46.92,196.13L51,200.58L57.12,205.97L71.4,215.17L77.52,218.06L81.6,220.34L87.72,222.22L97.92,228.59L102,230.23L112.2,232.5L118.32,236.08L122.4,236.42L128.53,237.95L132.61,238.6L138.73,242.44L142.81,241.94L148.93,244.09L153.01,244.68L159.13,246.91L179.53,250.85L183.61,250.46L189.73,252.41L193.81,252.36L199.93,256.04L204.01,257.56L210.13,256.28L214.21,258.43L220.33,258.5L224.41,260.65L234.61,259.84L240.73,261.8L244.81,264.67L250.93,264.58L255.01,266.73L261.13,264.31L271.33,266.15L275.41,264.67L281.53,268.67L285.61,266.93L291.73,268.78L295.81,269L301.93,273.02L306.01,270.8L312.13,272.38L316.21,271.16L322.33,275.19L326.41,271.04L332.53,273.94L336.61,273.02L342.73,281.74L348.85,278.07L352.93,276.97L359.05,281.93L363.13,275.05L369.25,279.23L379.45,280.63L383.54,277.28L389.66,277.75L393.74,282.12L399.86,285L403.94,282.91L410.06,281.55L414.14,283.31L420.26,282.91L424.34,285.67L430.46,287.06L434.54,285.22L440.66,285.89L444.74,284.35L454.94,287.06L461.06,285.44L465.14,291.85L471.26,286.59L475.34,292.75L481.46,292.75L485.54,289.6L491.66,293.38L495.74,292.45L501.86,293.38L505.94,289.07L512.06,295.01L516.14,293.69L522.26,293.69L526.34,294.34L532.46,293.06L536.54,296.78L542.66,290.69L546.74,297.53L552.86,292.45L556.94,296.06L563.06,299.51L567.14,292.14L573.26,299.1L577.34,292.45L583.46,298.7L587.54,297.91L593.66,298.7L597.74,301.23L603.86,302.14L607.94,299.1L614.06,302.61L618.14,300.35L624.26,301.23L628.34,299.1L634.46,299.1L638.55,298.7L644.67,301.23L648.75,299.51L654.87,303.58L658.95,298.7L665.07,304.59L681.39,308.54L685.47,301.23L691.59,308.54L695.67,308.54L701.79,305.11L705.87,305.65L711.99,314.08L716.07,307.93L722.19,309.16L726.27,314.08L732.39,311.14L736.47,318.39L742.59,304.08L746.67,313.31L752.79,306.2L756.87,309.16L762.99,309.16L767.07,310.46L773.19,319.36L777.27,309.16L783.39,310.46L787.47,308.54L793.59,309.16L797.67,313.31L803.79,320.38L807.87,311.84L813.99,314.88L818.07,313.31L824.19,314.08L828.27,311.14L834.39,308.54L838.47,319.36L844.59,319.36L848.67,314.08L858.87,322.55L864.99,314.08L869.07,314.08L875.19,316.57L879.27,317.46L885.39,321.44L889.47,312.57L895.6,319.36L899.68,315.71L905.8,316.57L909.88,312.57L916,320.38L920.08,318.39L926.2,316.57L930.28,322.55L936.4,318.39L940.48,323.71L946.6,319.36L956.8,324.95L960.88,320.38L967,326.25L971.08,318.39L977.2,321.44L981.28,322.55L987.4,315.71L991.48,320.38L997.6,317.46L1001.68,330.67L1007.8,315.71L1011.88,323.71L1018,329.1" style="vector-effect: none; fill: none; stroke: rgb(67, 67, 72); stroke-opacity: 1; stroke-width: 2px; opacity: 1;"/></g><g class="points"/><g class="text"/></g><g class="trace scatter tracee04c6d" style="stroke-miterlimit: 2; opacity: 1;"><g class="fills"/><g class="errorbars"/><g class="lines"><path class="js-line" d="M0,54.92L10.2,110.14L16.32,139.19L20.4,151.6L26.52,164.8L30.6,172.41L36.72,182.15L40.8,187.27L46.92,192.68L57.12,203.37L61.2,204.69L71.4,211.85L77.52,215.51L81.6,218.22L87.72,219.97L102,226.64L108.12,228.54L112.2,229.29L118.32,233.01L132.61,236.26L138.73,238.6L142.81,239.59L148.93,242.27L153.01,242.44L159.13,244.79L163.21,243.94L169.33,246.78L173.41,245.82L179.53,247.83L183.61,248.75L189.73,249.02L193.81,251.19L199.93,252.89L204.01,254.1L210.13,253.82L214.21,255.25L220.33,256.1L230.53,256.35L234.61,258.09L240.73,260.28L244.81,258.98L250.93,261.26L255.01,260.57L261.13,261.73L265.21,261.18L271.33,264.13L275.41,264.22L285.61,264.4L291.73,265.67L301.93,264.58L306.01,266.53L316.21,268.78L322.33,271.88L326.41,273.02L332.53,271.28L342.73,270.8L348.85,271.76L352.93,275.77L359.05,274.91L363.13,275.48L369.25,274.91L379.45,274.22L383.54,277.59L389.66,278.23L393.74,275.05L399.86,279.92L403.94,280.81L410.06,278.72L414.14,278.39L420.26,281L424.34,278.56L430.46,282.51L434.54,281.93L440.66,284.14L444.74,283.72L450.86,281.37L454.94,286.12L461.06,282.12L465.14,281L471.26,282.71L475.34,284.78L481.46,286.12L485.54,285.44L491.66,287.79L495.74,283.93L501.86,288.29L505.94,292.75L512.06,289.6L516.14,295.36L522.26,292.14L526.34,288.81L532.46,287.79L536.54,288.81L542.66,290.69L546.74,288.29L552.86,292.75L556.94,289.86L563.06,292.14L567.14,287.79L573.26,287.3L577.34,294.02L583.46,290.69L587.54,290.14L593.66,295.36L597.74,294.34L603.86,292.75L607.94,290.41L614.06,292.75L618.14,296.78L624.26,294.68L628.34,295.36L638.55,297.53L644.67,292.14L648.75,293.38L654.87,307.93L658.95,299.1L665.07,307.93L669.15,299.93L675.27,302.61L681.39,304.59L685.47,299.1L691.59,303.58L695.67,301.23L705.87,301.68L711.99,298.3L716.07,305.65L722.19,303.09L726.27,301.23L732.39,307.93L736.47,295.7L742.59,301.23L746.67,303.09L752.79,309.16L756.87,300.35L762.99,306.76L767.07,309.8L773.19,309.8L777.27,305.65L783.39,306.76L787.47,306.76L793.59,303.09L797.67,305.65L803.79,311.84L807.87,309.16L813.99,311.14L818.07,316.57L824.19,307.34L828.27,306.2L834.39,310.46L838.47,314.88L844.59,304.08L848.67,311.14L854.79,316.57L858.87,315.71L864.99,313.31L869.07,320.38L875.19,314.08L879.27,307.93L885.39,312.57L889.47,309.16L895.6,324.95L899.68,314.88L905.8,311.14L909.88,314.88L916,317.46L920.08,313.31L926.2,319.36L930.28,310.46L936.4,315.71L940.48,319.36L946.6,311.84L950.68,314.08L956.8,314.08L960.88,312.57L967,311.14L971.08,318.39L977.2,322.55L981.28,316.57L987.4,322.55L991.48,321.44L997.6,315.71L1001.68,314.88L1007.8,316.57L1011.88,316.57L1018,320.38" style="vector-effect: none; fill: none; stroke: rgb(144, 237, 125); stroke-opacity: 1; stroke-width: 2px; opacity: 1;"/></g><g class="points"/><g class="text"/></g><g class="trace scatter tracef05538" style="stroke-miterlimit: 2; opacity: 1;"><g class="fills"/><g class="errorbars"/><g class="lines"><path class="js-line" d="M0,48.5L10.2,108.67L16.32,137.15L20.4,149.91L26.52,163.08L30.6,170.74L36.72,180.53L46.92,191.68L51,195.31L61.2,204.96L67.32,208.14L71.4,210.16L77.52,214.62L87.72,219.04L91.8,221.71L97.92,225.18L102,226.49L118.32,231.2L122.4,233.92L128.53,234.34L132.61,236.45L148.93,241.68L153.01,241L159.13,243.09L163.21,243.34L179.53,248.61L183.61,250.51L189.73,249.94L193.81,253.05L199.93,255.79L204.01,254.44L214.21,254.67L220.33,257.89L224.41,256.22L230.53,259.41L234.61,259.19L240.73,259.84L244.81,260.5L250.93,263.27L255.01,264.58L261.13,264.49L265.21,263.27L271.33,267.83L275.41,266.63L281.53,267.22L285.61,266.63L291.73,267.33L295.81,267.73L301.93,269.66L306.01,268.25L312.13,271.88L316.21,272.89L322.33,271.16L326.41,270.92L332.53,272.01L336.61,275.62L342.73,274.63L348.85,276.06L352.93,275.91L359.05,274.77L363.13,281L369.25,277.12L373.33,278.56L379.45,282.91L383.54,275.91L389.66,283.52L393.74,279.4L399.86,280.63L403.94,286.35L410.06,282.91L414.14,285.22L420.26,284.14L424.34,282.32L430.46,284.78L434.54,285.22L440.66,285.67L444.74,288.55L454.94,287.55L461.06,288.81L465.14,284.14L471.26,289.86L475.34,291.55L481.46,288.81L485.54,292.14L491.66,289.07L495.74,296.42L501.86,289.86L505.94,295.36L512.06,291.55L516.14,288.81L522.26,294.68L526.34,299.1L532.46,295.7L536.54,294.02L542.66,296.06L546.74,295.01L552.86,298.3L556.94,299.93L563.06,296.42L567.14,306.2L573.26,297.91L577.34,302.14L583.46,299.51L587.54,299.1L593.66,307.93L597.74,303.09L603.86,301.23L607.94,301.23L614.06,300.35L618.14,300.35L624.26,301.23L628.34,300.79L634.46,301.23L638.55,306.2L644.67,302.14L648.75,309.8L654.87,306.2L658.95,311.84L665.07,302.61L669.15,303.09L675.27,305.65L681.39,306.2L685.47,305.65L691.59,301.68L695.67,311.84L701.79,303.09L705.87,307.93L711.99,314.88L716.07,305.11L722.19,309.8L726.27,306.2L732.39,319.36L736.47,311.14L742.59,314.08L746.67,312.57L752.79,311.14L756.87,314.88L762.99,319.36L767.07,311.84L773.19,312.57L777.27,315.71L783.39,310.46L787.47,327.63L793.59,314.88L797.67,314.08L803.79,327.63L807.87,319.36L813.99,313.31L818.07,321.44L824.19,312.57L828.27,322.55L834.39,313.31L838.47,319.36L844.59,316.57L848.67,327.63L854.79,326.25L858.87,321.44L864.99,319.36L869.07,314.88L875.19,322.55L879.27,332.36L885.39,310.46L889.47,319.36L895.6,319.36L899.68,318.39L905.8,321.44L909.88,321.44L916,329.1L920.08,322.55L926.2,321.44L930.28,323.71L936.4,322.55L940.48,323.71L946.6,321.44L950.68,324.95L956.8,318.39L960.88,332.36L967,317.46L971.08,327.63L977.2,329.1L981.28,324.95L987.4,323.71L991.48,320.38L1001.68,320.38L1007.8,321.44L1011.88,324.95L1018,334.18" style="vector-effect: none; fill: none; stroke: rgb(247, 163, 92); stroke-opacity: 1; stroke-width: 2px; opacity: 1;"/></g><g class="points"/><g class="text"/></g><g class="trace scatter trace12c1b8" style="stroke-miterlimit: 2; opacity: 1;"><g class="fills"/><g class="errorbars"/><g class="lines"><path class="js-line" d="M0,47.96L10.2,111.44L16.32,140.41L20.4,153.16L26.52,166.29L30.6,173.56L36.72,182.91L40.8,188.52L46.92,194.39L57.12,203.53L61.2,206.66L77.52,216.45L81.6,218.96L87.72,220.48L91.8,223.73L97.92,226.5L102,226.71L118.32,233.21L122.4,233.14L128.53,236.76L132.61,238.2L138.73,238.17L142.81,240.69L153.01,243.69L159.13,243.48L163.21,245.43L169.33,246.1L173.41,248.52L179.53,249.89L183.61,249.98L189.73,252.73L204.01,253.05L210.13,256.16L214.21,257.69L220.33,257.11L224.41,260.2L230.53,260.42L234.61,259.55L240.73,263.44L244.81,262.45L250.93,263.11L265.21,266.15L271.33,264.67L275.41,265.77L281.53,266.44L285.61,268.25L291.73,267.53L301.93,270.92L306.01,271.28L312.13,269L316.21,273.68L322.33,274.77L326.41,273.94L336.61,272.63L342.73,277.59L348.85,277.59L352.93,276.36L359.05,280.09L363.13,281.55L369.25,281.93L373.33,278.89L393.74,281.55L399.86,281L403.94,286.35L410.06,284.35L414.14,282.51L420.26,285.89L424.34,284.35L430.46,282.91L434.54,282.32L440.66,285.22L444.74,285.67L450.86,287.55L454.94,286.82L461.06,288.04L465.14,288.29L471.26,290.41L475.34,288.81L481.46,290.41L485.54,288.04L491.66,290.69L495.74,288.55L501.86,293.69L505.94,292.75L512.06,295.01L516.14,297.91L522.26,295.7L526.34,296.42L532.46,293.06L536.54,299.1L542.66,299.93L546.74,297.91L552.86,300.79L556.94,304.59L563.06,299.93L567.14,298.7L573.26,306.76L577.34,298.7L583.46,304.59L587.54,298.7L593.66,302.14L597.74,299.1L603.86,298.3L614.06,304.08L618.14,305.11L624.26,303.09L628.34,303.58L634.46,301.68L638.55,305.11L644.67,304.08L648.75,311.84L654.87,309.16L658.95,302.61L665.07,299.93L669.15,305.65L681.39,308.54L685.47,313.31L691.59,307.93L695.67,306.2L701.79,303.58L705.87,315.71L711.99,311.14L716.07,309.16L722.19,313.31L726.27,312.57L732.39,318.39L736.47,307.93L742.59,317.46L746.67,314.08L756.87,317.46L762.99,312.57L767.07,317.46L773.19,308.54L777.27,314.88L783.39,317.46L787.47,309.16L793.59,316.57L797.67,316.57L803.79,319.36L807.87,316.57L813.99,309.16L818.07,317.46L824.19,314.08L828.27,315.71L834.39,312.57L838.47,316.57L844.59,323.71L848.67,313.31L854.79,319.36L858.87,318.39L864.99,323.71L869.07,324.95L875.19,329.1L879.27,315.71L885.39,320.38L889.47,319.36L895.6,311.84L899.68,322.55L905.8,318.39L909.88,319.36L916,322.55L920.08,321.44L926.2,322.55L930.28,323.71L936.4,323.71L946.6,320.38L950.68,329.1L956.8,316.57L960.88,320.38L967,321.44L971.08,318.39L977.2,317.46L981.28,326.25L987.4,323.71L991.48,332.36L997.6,329.1L1001.68,320.38L1007.8,329.1L1011.88,332.36L1018,323.71" style="vector-effect: none; fill: none; stroke: rgb(128, 133, 233); stroke-opacity: 1; stroke-width: 2px; opacity: 1;"/></g><g class="points"/><g class="text"/></g><g class="trace scatter trace21f4a6" style="stroke-miterlimit: 2; opacity: 1;"><g class="fills"/><g class="errorbars"/><g class="lines"><path class="js-line" d="M0,59.72L10.2,111.85L16.32,140.38L20.4,153.29L26.52,166.96L30.6,174.36L36.72,183.79L40.8,189.48L46.92,195.19L57.12,203.89L61.2,206.61L81.6,218.9L87.72,222.14L91.8,222.97L97.92,226.12L108.12,229.63L112.2,231.89L118.32,235.31L122.4,234.96L128.53,236.01L132.61,238.28L138.73,240.53L142.81,241.16L148.93,242.11L153.01,244.38L159.13,246.22L163.21,245.09L173.41,249.79L179.53,250.94L183.61,250.8L189.73,252.73L193.81,254.61L199.93,253.43L204.01,257.3L210.13,259.41L214.21,255.31L220.33,258.91L224.41,257.76L230.53,258.98L234.61,261.57L240.73,260.5L250.93,263.53L255.01,261.49L261.13,264.4L265.21,264.4L275.41,269.55L281.53,269.22L285.61,265.86L291.73,270.57L295.81,269L301.93,269.44L306.01,272.26L312.13,272.51L322.33,276.81L326.41,271.64L332.53,274.63L336.61,271.88L342.73,275.62L348.85,276.36L352.93,278.56L359.05,278.07L363.13,277.12L369.25,279.57L373.33,282.32L379.45,281.55L383.54,280.81L389.66,282.12L393.74,286.12L399.86,278.89L403.94,281.37L410.06,288.04L414.14,286.35L420.26,288.81L424.34,285.22L430.46,285L434.54,282.32L440.66,288.04L444.74,284.57L450.86,289.86L454.94,285.44L461.06,287.55L465.14,287.55L471.26,290.98L475.34,290.98L481.46,292.75L485.54,290.98L491.66,287.3L495.74,292.14L501.86,289.33L505.94,294.68L512.06,289.86L516.14,298.3L522.26,294.68L526.34,294.34L532.46,293.06L536.54,291.55L542.66,297.53L546.74,302.61L552.86,295.36L556.94,300.35L563.06,296.06L567.14,299.1L573.26,297.91L577.34,304.08L583.46,294.68L587.54,296.06L593.66,296.06L597.74,295.7L603.86,296.78L607.94,300.35L614.06,295.7L618.14,301.68L624.26,299.93L628.34,297.15L634.46,303.58L644.67,301.68L648.75,300.35L654.87,302.61L658.95,309.8L665.07,309.8L669.15,302.14L675.27,299.93L681.39,308.54L685.47,305.11L691.59,306.2L695.67,305.65L701.79,303.58L705.87,303.58L711.99,302.14L716.07,311.84L722.19,306.2L726.27,304.08L732.39,306.2L742.59,311.84L746.67,312.57L752.79,308.54L756.87,313.31L762.99,304.08L767.07,310.46L773.19,308.54L777.27,314.88L783.39,309.8L787.47,315.71L793.59,312.57L797.67,312.57L803.79,311.14L807.87,308.54L813.99,317.46L818.07,312.57L824.19,317.46L828.27,316.57L834.39,308.54L838.47,313.31L844.59,323.71L848.67,312.57L854.79,317.46L858.87,323.71L864.99,320.38L869.07,324.95L875.19,314.88L879.27,314.08L885.39,320.38L889.47,315.71L895.6,313.31L899.68,324.95L905.8,322.55L909.88,307.93L916,317.46L920.08,310.46L930.28,329.1L936.4,317.46L946.6,322.55L950.68,315.71L956.8,322.55L960.88,321.44L967,322.55L971.08,330.67L977.2,321.44L981.28,323.71L987.4,334.18L991.48,330.67L997.6,319.36L1001.68,343.41L1011.88,321.44L1018,326.25" style="vector-effect: none; fill: none; stroke: rgb(241, 92, 128); stroke-opacity: 1; stroke-width: 2px; opacity: 1;"/></g><g class="points"/><g class="text"/></g><g class="trace scatter trace9626b8" style="stroke-miterlimit: 2; opacity: 1;"><g class="fills"/><g class="errorbars"/><g class="lines"><path class="js-line" d="M0,46.99L10.2,107.52L16.32,135.22L20.4,147.31L26.52,160.46L36.72,177.34L40.8,182.48L61.2,202.01L67.32,205.21L81.6,213.69L87.72,216.75L102,222.87L108.12,224.76L112.2,227.25L118.32,227.85L122.4,230.37L128.53,232.09L142.81,235.68L148.93,238.97L153.01,238.71L159.13,239.68L163.21,241.97L169.33,242.58L179.53,244.71L183.61,248.04L189.73,248.48L193.81,247.62L210.13,251.39L214.21,251.04L224.41,252.1L230.53,254.9L234.61,257.17L240.73,256.79L244.81,257.11L250.93,259.62L265.21,260.2L271.33,261.88L281.53,263.11L285.61,266.05L295.81,263.44L301.93,267.12L306.01,268.04L312.13,267.33L316.21,266.83L322.33,264.58L326.41,268.25L332.53,269.77L336.61,267.43L342.73,274.35L348.85,272.38L352.93,272.89L359.05,273.94L363.13,272.38L369.25,274.91L373.33,272.63L379.45,278.07L383.54,274.35L389.66,281.37L393.74,278.39L403.94,279.57L410.06,277.43L414.14,273.94L420.26,282.71L424.34,279.74L430.46,279.06L440.66,278.56L444.74,281.74L450.86,286.35L454.94,282.12L461.06,285.44L465.14,282.12L471.26,285.44L475.34,282.32L481.46,284.14L485.54,279.23L491.66,287.3L495.74,289.6L501.86,287.3L505.94,287.79L516.14,289.33L522.26,295.7L526.34,291.26L532.46,287.3L536.54,291.55L542.66,295.7L546.74,289.6L552.86,289.33L556.94,294.68L563.06,291.85L567.14,293.38L573.26,292.14L577.34,294.34L583.46,295.01L587.54,293.06L593.66,291.26L597.74,291.55L603.86,297.91L607.94,294.02L614.06,298.7L618.14,297.91L624.26,301.68L628.34,302.14L634.46,299.93L638.55,290.41L644.67,300.79L648.75,295.7L654.87,303.09L658.95,299.1L665.07,300.35L669.15,301.23L675.27,299.1L681.39,295.01L685.47,303.09L691.59,299.93L695.67,304.08L701.79,305.11L705.87,301.23L711.99,310.46L716.07,308.54L722.19,298.7L726.27,306.76L732.39,306.2L736.47,300.35L742.59,307.93L746.67,305.11L752.79,307.34L756.87,307.93L762.99,305.11L767.07,308.54L777.27,311.14L783.39,307.34L787.47,305.65L793.59,307.34L797.67,308.54L803.79,312.57L807.87,306.2L813.99,313.31L818.07,309.8L824.19,309.16L828.27,309.16L834.39,311.84L838.47,309.16L844.59,314.08L848.67,311.14L854.79,317.46L858.87,316.57L864.99,317.46L869.07,318.39L875.19,304.59L879.27,319.36L885.39,313.31L889.47,323.71L895.6,309.8L899.68,317.46L905.8,314.08L909.88,323.71L916,320.38L920.08,314.08L926.2,316.57L930.28,320.38L936.4,320.38L940.48,317.46L946.6,327.63L950.68,315.71L956.8,327.63L960.88,318.39L967,313.31L971.08,322.55L977.2,326.25L981.28,319.36L987.4,332.36L991.48,311.14L997.6,323.71L1001.68,324.95L1007.8,323.71L1011.88,319.36L1018,320.38" style="vector-effect: none; fill: none; stroke: rgb(228, 211, 84); stroke-opacity: 1; stroke-width: 2px; opacity: 1;"/></g><g class="points"/><g class="text"/></g><g class="trace scatter tracef3ec04" style="stroke-miterlimit: 2; opacity: 1;"><g class="fills"/><g class="errorbars"/><g class="lines"><path class="js-line" d="M0,56.76L6.12,91.53L10.2,106.51L16.32,131.44L20.4,144.05L30.6,167.08L36.72,178.76L46.92,191.07L51,195.11L57.12,201.47L61.2,203.83L67.32,208.67L71.4,210.63L81.6,217.56L87.72,220.79L91.8,223.24L97.92,225.68L108.12,229.86L112.2,230.45L118.32,234.72L122.4,235.63L138.73,240.1L142.81,240.01L148.93,243.06L153.01,244.05L159.13,244.98L163.21,246.95L169.33,248.52L173.41,247.32L183.61,250.85L189.73,251.84L193.81,251.59L199.93,253.16L204.01,253.87L210.13,252.41L214.21,258.98L220.33,256.98L224.41,258.98L230.53,258.16L234.61,260.72L240.73,260.35L244.81,260.2L250.93,262.2L261.13,265.58L265.21,262.86L271.33,265.03L275.41,268.04L281.53,270.11L285.61,266.83L291.73,267.12L295.81,269.66L301.93,268.89L306.01,270.69L312.13,267.53L316.21,271.28L326.41,274.08L332.53,271.16L336.61,274.91L342.73,273.94L348.85,278.72L352.93,279.06L359.05,276.97L363.13,276.51L369.25,279.06L373.33,278.39L379.45,279.23L383.54,281.74L389.66,278.39L393.74,278.39L399.86,282.32L403.94,279.23L410.06,281.18L414.14,280.63L420.26,285.44L424.34,284.57L430.46,284.57L434.54,286.12L440.66,284.14L444.74,287.55L450.86,285L454.94,286.12L461.06,284.78L465.14,289.86L471.26,287.06L475.34,289.33L481.46,288.81L485.54,289.6L491.66,296.42L495.74,288.81L501.86,288.81L505.94,292.14L516.14,290.69L522.26,294.34L532.46,295.01L536.54,297.53L542.66,292.14L546.74,294.68L552.86,296.78L556.94,291.85L563.06,299.1L567.14,296.78L573.26,297.15L577.34,294.68L593.66,301.23L597.74,299.1L603.86,297.91L607.94,299.93L614.06,303.58L618.14,301.23L624.26,303.09L628.34,301.68L634.46,308.54L638.55,299.51L644.67,299.51L648.75,301.68L654.87,304.08L658.95,306.76L665.07,299.1L669.15,307.93L675.27,302.14L681.39,313.31L685.47,302.61L691.59,302.61L695.67,306.2L701.79,308.54L705.87,306.2L711.99,307.93L716.07,309.16L722.19,309.16L726.27,304.59L732.39,315.71L742.59,308.54L746.67,309.16L756.87,305.65L762.99,311.84L767.07,311.14L773.19,315.71L777.27,309.16L783.39,315.71L787.47,310.46L793.59,309.8L797.67,310.46L803.79,310.46L813.99,320.38L818.07,309.16L824.19,307.34L828.27,316.57L834.39,314.08L838.47,314.08L844.59,309.8L848.67,315.71L854.79,316.57L858.87,310.46L864.99,316.57L869.07,334.18L875.19,313.31L879.27,319.36L885.39,321.44L889.47,314.08L895.6,322.55L899.68,314.88L905.8,318.39L909.88,319.36L916,316.57L920.08,312.57L926.2,324.95L930.28,315.71L936.4,322.55L940.48,314.08L946.6,327.63L950.68,321.44L956.8,322.55L960.88,329.1L967,319.36L971.08,321.44L977.2,336.16L981.28,322.55L987.4,321.44L991.48,327.63L997.6,318.39L1001.68,318.39L1007.8,322.55L1011.88,326.25L1018,327.63" style="vector-effect: none; fill: none; stroke: rgb(43, 144, 143); stroke-opacity: 1; stroke-width: 2px; opacity: 1;"/></g><g class="points"/><g class="text"/></g><g class="trace scatter tracecbf4a2" style="stroke-miterlimit: 2; opacity: 1;"><g class="fills"/><g class="errorbars"/><g class="lines"><path class="js-line" d="M0,39.39L10.2,108.29L16.32,135.17L20.4,147.01L26.52,160.19L36.72,177.15L40.8,182.2L46.92,189.22L51,192.61L61.2,201.58L67.32,205.31L81.6,214.59L87.72,216.98L91.8,218.64L97.92,222.55L102,224.15L108.12,225.62L112.2,227.8L118.32,230.1L122.4,231.6L128.53,232.65L132.61,234.74L138.73,236.52L142.81,237.67L148.93,241.03L159.13,241.84L163.21,244.42L169.33,243.98L173.41,246.06L183.61,247.7L189.73,247.45L193.81,249.66L199.93,249.84L204.01,252.41L210.13,250.94L214.21,254.27L220.33,255.31L224.41,255.91L230.53,257.82L234.61,255.25L240.73,259.19L244.81,259.12L250.93,260.13L255.01,262.77L261.13,259.33L265.21,263.87L271.33,262.45L275.41,265.77L281.53,265.21L285.61,265.21L291.73,266.05L295.81,265.21L301.93,266.34L306.01,269L312.13,267.53L316.21,270.34L322.33,270L336.61,271.64L342.73,273.28L348.85,274.91L352.93,268.67L359.05,274.22L363.13,276.36L369.25,276.66L373.33,274.22L379.45,277.91L383.54,274.35L389.66,276.66L393.74,276.66L399.86,275.91L403.94,280.27L410.06,281.93L414.14,281.74L420.26,281.55L424.34,284.35L430.46,280.81L434.54,279.74L440.66,283.93L444.74,281.18L450.86,285.22L454.94,282.91L461.06,287.55L465.14,285.89L471.26,287.06L475.34,285.89L481.46,287.3L485.54,290.14L491.66,288.81L495.74,283.31L501.86,288.29L505.94,292.75L512.06,293.69L516.14,286.59L522.26,290.41L526.34,289.6L532.46,290.98L536.54,292.75L542.66,289.86L546.74,291.55L552.86,290.98L556.94,300.79L563.06,293.69L567.14,295.01L573.26,291.85L577.34,297.91L583.46,295.36L587.54,301.23L593.66,298.7L597.74,297.91L603.86,297.91L607.94,301.23L614.06,299.1L618.14,295.01L628.34,300.35L634.46,300.79L638.55,292.75L644.67,298.7L648.75,298.3L654.87,301.68L658.95,298.7L665.07,304.08L669.15,307.93L675.27,307.34L681.39,299.51L685.47,306.2L695.67,302.14L701.79,303.09L705.87,307.34L711.99,311.14L716.07,305.11L722.19,303.58L726.27,303.58L732.39,304.59L736.47,308.54L742.59,307.93L746.67,306.76L752.79,307.34L756.87,303.58L762.99,308.54L767.07,310.46L773.19,306.76L783.39,314.88L787.47,307.93L793.59,306.2L797.67,311.84L803.79,312.57L807.87,314.88L818.07,311.14L824.19,317.46L828.27,309.8L834.39,309.8L838.47,309.16L844.59,311.14L848.67,308.54L854.79,318.39L858.87,316.57L864.99,320.38L875.19,317.46L879.27,317.46L885.39,317.46L889.47,310.46L895.6,316.57L899.68,311.14L905.8,319.36L909.88,315.71L916,314.08L920.08,311.84L926.2,314.88L930.28,322.55L936.4,315.71L940.48,320.38L946.6,317.46L950.68,321.44L956.8,317.46L960.88,322.55L967,318.39L971.08,310.46L977.2,315.71L981.28,329.1L987.4,324.95L991.48,319.36L997.6,326.25L1001.68,319.36L1007.8,320.38L1011.88,326.25L1018,323.71" style="vector-effect: none; fill: none; stroke: rgb(244, 91, 91); stroke-opacity: 1; stroke-width: 2px; opacity: 1;"/></g><g class="points"/><g class="text"/></g><g class="trace scatter trace991099" style="stroke-miterlimit: 2; opacity: 1;"><g class="fills"/><g class="errorbars"/><g class="lines"><path class="js-line" d="M0,26.46L6.12,90.09L10.2,116.6L16.32,142.28L20.4,153.19L30.6,172.84L36.72,182.39L46.92,193.24L51,197.04L61.2,205.84L67.32,210L71.4,212.99L77.52,215.6L87.72,220.8L91.8,222.71L102,227.92L108.12,230.75L112.2,230.41L118.32,234.72L122.4,235.06L128.53,236.71L132.61,239.03L138.73,239.41L142.81,241.68L148.93,242.68L153.01,245.43L159.13,248.44L163.21,246.34L169.33,248.48L173.41,250.08L179.53,250.7L189.73,255.19L193.81,255.25L199.93,255.08L204.01,256.53L210.13,258.57L214.21,261.34L220.33,261.65L224.41,264.67L230.53,261.18L234.61,263.53L240.73,263.53L244.81,264.94L250.93,266.63L255.01,266.53L261.13,272.13L265.21,271.04L271.33,269.88L275.41,271.16L281.53,268.04L285.61,275.05L291.73,274.08L295.81,277.75L306.01,273.81L312.13,278.39L316.21,276.51L322.33,278.23L326.41,282.71L332.53,279.23L336.61,282.32L342.73,278.56L348.85,281.74L352.93,282.32L363.13,283.93L369.25,281.93L373.33,287.06L379.45,288.29L383.54,286.82L389.66,288.04L393.74,287.55L399.86,290.41L403.94,291.55L410.06,287.06L414.14,294.02L420.26,289.6L424.34,296.06L430.46,289.33L434.54,290.69L440.66,294.34L444.74,294.02L450.86,298.7L454.94,298.7L461.06,299.51L465.14,291.26L471.26,295.36L475.34,297.53L481.46,302.61L485.54,307.93L491.66,298.7L495.74,294.02L501.86,298.3L505.94,309.8L512.06,306.2L516.14,305.11L522.26,309.8L526.34,298.7L532.46,303.09L536.54,304.59L542.66,304.59L546.74,303.58L552.86,306.2L556.94,306.76L563.06,299.1L567.14,306.2L573.26,307.93L583.46,311.84L587.54,304.08L597.74,312.57L603.86,311.84L607.94,299.51L614.06,311.14L618.14,306.2L624.26,307.93L634.46,310.46L638.55,314.08L644.67,306.2L648.75,313.31L665.07,319.36L669.15,314.08L675.27,314.08L681.39,312.57L685.47,311.84L691.59,319.36L695.67,322.55L701.79,315.71L705.87,320.38L711.99,320.38L716.07,314.88L722.19,321.44L732.39,318.39L736.47,323.71L742.59,326.25L746.67,320.38L752.79,326.25L756.87,326.25L762.99,323.71L767.07,323.71L773.19,323.71L777.27,340.73L783.39,324.95L787.47,320.38L797.67,323.71L803.79,321.44L807.87,336.16L813.99,323.71L818.07,329.1L824.19,318.39L834.39,322.55L838.47,332.36L844.59,322.55L848.67,324.95L854.79,332.36L858.87,326.25L864.99,329.1L869.07,327.63L875.19,327.63L879.27,338.33L885.39,324.95L889.47,329.1L895.6,334.18L899.68,332.36L905.8,323.71L909.88,332.36L916,346.45L920.08,326.25L926.2,329.1L930.28,324.95L936.4,340.73L940.48,336.16L946.6,334.18L950.68,326.25L956.8,334.18L960.88,340.73L977.2,334.18L981.28,334.18L987.4,338.33L991.48,346.45L997.6,327.63L1001.68,338.33L1007.8,354.12L1011.88,334.18L1018,340.73" style="vector-effect: none; fill: none; stroke: rgb(145, 232, 225); stroke-opacity: 1; stroke-width: 2px; opacity: 1;"/></g><g class="points"/><g class="text"/></g><g class="trace scatter trace01b022" style="stroke-miterlimit: 2; opacity: 1;"><g class="fills"/><g class="errorbars"/><g class="lines"><path class="js-line" d="M0,33.47L6.12,88.23L10.2,114.15L16.32,140.12L20.4,151.41L30.6,171.04L36.72,180.08L46.92,190.66L51,194.85L67.32,207.71L71.4,209.31L77.52,213.95L81.6,214.7L87.72,218.96L91.8,219.72L97.92,221.53L102,223.88L108.12,227.08L112.2,227.71L118.32,231.33L122.4,231.02L148.93,240.69L153.01,240.91L159.13,241.32L163.21,242.95L173.41,245.09L179.53,244.05L183.61,245.9L189.73,247.07L193.81,250.27L199.93,251.95L210.13,251.79L214.21,252.84L220.33,254.44L224.41,256.72L230.53,260.65L234.61,258.23L240.73,258.84L244.81,261.49L250.93,262.61L255.01,261.73L261.13,265.96L265.21,264.4L271.33,267.33L275.41,266.63L281.53,267.03L285.61,268.57L295.81,267.63L301.93,268.25L312.13,272.51L316.21,274.49L322.33,272.01L326.41,273.81L332.53,274.77L336.61,272.76L352.93,276.21L359.05,277.91L363.13,275.77L369.25,280.27L373.33,278.72L379.45,279.57L383.54,280.81L389.66,279.92L393.74,281.55L399.86,279.23L403.94,285.89L410.06,285.22L414.14,282.12L420.26,283.93L424.34,281.93L430.46,284.78L434.54,287.06L440.66,282.71L444.74,288.81L450.86,288.29L454.94,286.59L461.06,293.38L465.14,288.55L471.26,290.14L475.34,285.89L481.46,291.26L485.54,293.06L491.66,290.69L495.74,295.01L501.86,292.45L505.94,294.02L512.06,298.7L516.14,294.68L522.26,291.55L532.46,297.53L536.54,294.34L542.66,294.02L546.74,296.78L552.86,303.09L556.94,295.7L563.06,297.15L567.14,296.06L573.26,300.79L577.34,306.2L583.46,299.51L587.54,301.23L593.66,297.15L597.74,300.79L603.86,301.68L607.94,304.59L614.06,302.14L618.14,298.7L624.26,303.09L628.34,297.15L634.46,306.2L638.55,305.11L644.67,308.54L648.75,303.58L658.95,307.34L665.07,310.46L669.15,301.68L675.27,309.8L681.39,302.61L685.47,304.08L691.59,311.14L695.67,307.34L705.87,307.93L711.99,315.71L716.07,310.46L722.19,320.38L726.27,311.14L732.39,311.84L736.47,314.88L742.59,318.39L746.67,316.57L752.79,310.46L756.87,317.46L762.99,315.71L767.07,307.93L773.19,314.08L777.27,317.46L783.39,316.57L793.59,310.46L797.67,312.57L803.79,321.44L807.87,322.55L813.99,320.38L818.07,313.31L824.19,315.71L828.27,318.39L834.39,322.55L838.47,320.38L844.59,322.55L848.67,316.57L854.79,319.36L858.87,320.38L864.99,332.36L869.07,319.36L875.19,326.25L879.27,320.38L885.39,320.38L889.47,322.55L899.68,317.46L905.8,317.46L909.88,322.55L916,320.38L920.08,314.08L926.2,324.95L930.28,330.67L936.4,322.55L940.48,349.96L946.6,324.95L950.68,323.71L956.8,323.71L960.88,315.71L967,323.71L971.08,327.63L977.2,327.63L981.28,324.95L987.4,336.16L991.48,332.36L997.6,322.55L1001.68,326.25L1007.8,338.33L1011.88,323.71L1018,336.16" style="vector-effect: none; fill: none; stroke: rgb(124, 181, 236); stroke-opacity: 1; stroke-width: 2px; opacity: 1;"/></g><g class="points"/><g class="text"/></g><g class="trace scatter traceef5613" style="stroke-miterlimit: 2; opacity: 1;"><g class="fills"/><g class="errorbars"/><g class="lines"><path class="js-line" d="M0,35.61L6.12,83.17L10.2,108.27L16.32,135.19L20.4,147.11L26.52,160.87L30.6,168.13L36.72,178.06L40.8,183.04L51,194.61L57.12,200.34L71.4,210.96L77.52,214.21L91.8,222.91L97.92,225.18L112.2,229.73L118.32,232.96L128.53,235.5L132.61,238.12L138.73,238.6L142.81,241.84L148.93,241.1L153.01,244.16L159.13,243.34L163.21,245.24L173.41,246.7L179.53,250.03L189.73,251.44L193.81,253.54L199.93,252.62L204.01,254.73L210.13,254.38L214.21,257.17L220.33,255.55L224.41,257.36L230.53,261.41L234.61,261.03L240.73,260.2L244.81,261.73L250.93,264.94L255.01,263.96L261.13,267.33L265.21,265.67L271.33,264.85L275.41,265.3L281.53,265.96L285.61,268.25L291.73,270.57L295.81,270L301.93,271.76L306.01,271.52L312.13,269.77L316.21,274.22L322.33,274.63L326.41,278.72L332.53,274.49L336.61,276.66L342.73,278.39L348.85,278.72L352.93,277.28L359.05,276.36L363.13,279.74L369.25,282.51L373.33,280.09L379.45,280.81L383.54,282.32L389.66,280.63L393.74,283.31L399.86,281.55L403.94,284.14L410.06,282.51L414.14,285.44L420.26,286.35L424.34,282.71L430.46,285.89L440.66,287.79L444.74,286.82L450.86,288.04L454.94,289.86L461.06,290.98L465.14,289.6L471.26,290.41L475.34,295.01L481.46,289.86L485.54,289.07L491.66,289.6L495.74,291.55L501.86,296.78L505.94,291.26L512.06,290.98L516.14,294.34L522.26,294.68L526.34,296.06L532.46,297.91L536.54,296.78L542.66,297.53L546.74,302.61L552.86,299.93L556.94,294.68L563.06,298.7L567.14,300.35L573.26,298.7L577.34,299.1L583.46,305.11L587.54,303.09L593.66,301.68L597.74,299.51L603.86,299.51L607.94,305.65L614.06,303.09L618.14,309.8L624.26,301.68L628.34,306.2L638.55,305.65L644.67,303.09L648.75,309.8L654.87,306.2L658.95,311.84L665.07,310.46L669.15,305.11L675.27,305.65L681.39,314.88L685.47,312.57L691.59,307.93L695.67,308.54L701.79,305.65L705.87,307.34L711.99,313.31L716.07,312.57L722.19,306.76L726.27,314.88L732.39,311.84L736.47,317.46L742.59,307.93L746.67,306.76L752.79,313.31L756.87,314.88L762.99,316.57L767.07,310.46L773.19,314.88L777.27,310.46L787.47,314.88L793.59,316.57L797.67,310.46L803.79,314.88L807.87,318.39L813.99,316.57L818.07,319.36L824.19,314.08L828.27,319.36L834.39,318.39L838.47,312.57L844.59,317.46L848.67,327.63L854.79,322.55L858.87,326.25L864.99,322.55L869.07,324.95L875.19,317.46L879.27,314.88L885.39,326.25L889.47,334.18L895.6,326.25L905.8,322.55L909.88,317.46L920.08,336.16L926.2,322.55L930.28,338.33L936.4,321.44L940.48,323.71L946.6,324.95L950.68,334.18L956.8,327.63L960.88,318.39L967,329.1L977.2,324.95L981.28,324.95L987.4,319.36L991.48,327.63L997.6,326.25L1001.68,327.63L1007.8,318.39L1011.88,322.55L1018,334.18" style="vector-effect: none; fill: none; stroke: rgb(67, 67, 72); stroke-opacity: 1; stroke-width: 2px; opacity: 1;"/></g><g class="points"/><g class="text"/></g><g class="trace scatter trace81f5fe" style="stroke-miterlimit: 2; opacity: 1;"><g class="fills"/><g class="errorbars"/><g class="lines"><path class="js-line" d="M0,28.04L6.12,89.59L10.2,115.8L16.32,140.21L20.4,150.33L30.6,168.29L36.72,177.13L40.8,181.94L46.92,187.4L57.12,196.87L61.2,199.31L71.4,206.38L77.52,209.73L87.72,215.61L91.8,216.69L102,222.33L108.12,224.15L112.2,226.88L118.32,229.25L122.4,230.43L128.53,233.62L132.61,233.39L138.73,235.93L142.81,237.48L148.93,237.62L153.01,239.86L159.13,242.14L163.21,244.94L169.33,243.44L173.41,247.74L179.53,248.04L183.61,250.22L189.73,249.15L193.81,251.59L199.93,253.82L204.01,256.22L210.13,257.3L220.33,258.02L224.41,259.19L230.53,261.03L234.61,259.19L240.73,262.53L244.81,263.61L255.01,266.24L261.13,268.15L265.21,265.96L271.33,270.11L275.41,266.44L281.53,267.83L285.61,272.13L291.73,274.35L295.81,274.63L301.93,274.08L306.01,274.63L312.13,276.66L316.21,278.89L322.33,276.36L326.41,277.28L332.53,279.92L336.61,282.32L342.73,280.81L348.85,282.91L352.93,281.93L359.05,287.06L363.13,285.67L369.25,286.82L373.33,285.44L379.45,290.14L383.54,284.35L389.66,287.79L393.74,286.59L399.86,287.79L403.94,285L410.06,290.41L414.14,290.41L424.34,295.01L430.46,293.06L434.54,287.3L440.66,293.06L444.74,297.15L450.86,289.6L454.94,296.42L461.06,295.36L465.14,293.06L471.26,293.69L475.34,301.23L481.46,297.91L485.54,301.23L491.66,307.93L495.74,301.23L501.86,307.34L505.94,304.08L512.06,306.2L516.14,306.76L522.26,301.68L526.34,304.08L532.46,304.59L536.54,301.68L542.66,303.58L546.74,305.65L552.86,310.46L556.94,312.57L563.06,307.93L567.14,307.34L573.26,313.31L577.34,312.57L583.46,314.88L587.54,313.31L593.66,308.54L597.74,309.16L603.86,317.46L607.94,314.88L614.06,314.08L624.26,309.8L628.34,314.08L634.46,311.84L638.55,327.63L644.67,313.31L648.75,320.38L654.87,321.44L658.95,323.71L665.07,315.71L669.15,334.18L675.27,317.46L681.39,314.08L685.47,314.88L691.59,326.25L695.67,321.44L701.79,320.38L705.87,319.36L711.99,319.36L716.07,317.46L722.19,316.57L726.27,318.39L732.39,324.95L736.47,322.55L742.59,329.1L746.67,320.38L752.79,322.55L756.87,324.95L762.99,326.25L767.07,319.36L773.19,334.18L777.27,324.95L783.39,329.1L787.47,330.67L793.59,326.25L797.67,326.25L803.79,324.95L807.87,332.36L813.99,334.18L818.07,323.71L824.19,334.18L828.27,322.55L834.39,338.33L838.47,334.18L844.59,319.36L848.67,330.67L854.79,336.16L858.87,332.36L864.99,340.73L869.07,343.41L875.19,334.18L879.27,336.16L885.39,320.38L889.47,322.55L895.6,334.18L899.68,338.33L905.8,340.73L909.88,327.63L916,334.18L920.08,349.96L926.2,332.36L930.28,346.45L936.4,334.18L940.48,346.45L946.6,330.67L950.68,365.75L956.8,340.73L960.88,349.96L967,349.96L971.08,332.36L977.2,336.16L981.28,340.73L987.4,349.96L991.48,365.75L997.6,340.73L1001.68,336.16L1007.8,346.45L1011.88,340.73L1018,346.45" style="vector-effect: none; fill: none; stroke: rgb(144, 237, 125); stroke-opacity: 1; stroke-width: 2px; opacity: 1;"/></g><g class="points"/><g class="text"/></g><g class="trace scatter trace15d6b5" style="stroke-miterlimit: 2; opacity: 1;"><g class="fills"/><g class="errorbars"/><g class="lines"><path class="js-line" d="M0,35.87L6.12,86.56L10.2,113.14L16.32,141.47L20.4,153.95L30.6,176L36.72,185.29L51,201.2L57.12,206.61L67.32,214.44L71.4,215.92L77.52,220.31L81.6,222.26L87.72,223.97L91.8,226.79L97.92,230.67L102,231.62L108.12,233.87L112.2,236.34L122.4,239.5L128.53,241.87L132.61,245.28L138.73,245.09L142.81,244.9L148.93,248.26L153.01,249.11L159.13,248.97L163.21,252.31L169.33,253.6L173.41,252.89L179.53,254.32L183.61,256.66L189.73,256.04L193.81,257.56L199.93,257.76L204.01,261.26L210.13,258.64L214.21,263.02L220.33,261.96L224.41,265.86L230.53,266.15L234.61,265.12L240.73,264.76L244.81,264.49L250.93,270.69L255.01,269.88L261.13,270.45L265.21,271.76L271.33,269.33L275.41,274.63L281.53,275.77L285.61,275.48L291.73,277.75L295.81,276.97L301.93,276.81L306.01,278.56L312.13,278.56L316.21,277.43L322.33,280.27L332.53,277.28L336.61,278.89L342.73,283.52L348.85,283.11L352.93,286.59L359.05,281.37L363.13,285L369.25,286.35L373.33,286.12L379.45,289.33L383.54,291.26L389.66,287.06L393.74,287.79L399.86,290.41L403.94,290.41L410.06,288.29L420.26,294.68L424.34,294.34L430.46,294.02L434.54,297.15L440.66,292.14L444.74,294.68L454.94,302.61L461.06,299.1L465.14,303.58L471.26,297.53L475.34,299.1L481.46,294.68L485.54,300.79L491.66,299.93L501.86,299.93L505.94,300.79L512.06,300.35L516.14,303.58L522.26,300.35L526.34,305.11L532.46,304.08L536.54,301.23L542.66,309.8L546.74,299.93L552.86,301.68L556.94,306.2L563.06,307.34L567.14,298.7L573.26,305.65L577.34,304.08L583.46,311.84L587.54,308.54L593.66,313.31L597.74,311.14L603.86,311.84L607.94,307.93L614.06,303.09L618.14,309.8L624.26,315.71L628.34,301.23L634.46,312.57L638.55,314.88L644.67,315.71L648.75,314.88L654.87,314.08L658.95,316.57L665.07,316.57L669.15,314.08L675.27,307.34L681.39,310.46L685.47,320.38L691.59,318.39L695.67,321.44L701.79,324.95L705.87,318.39L711.99,319.36L716.07,314.88L722.19,336.16L726.27,314.88L732.39,323.71L736.47,315.71L742.59,318.39L746.67,324.95L752.79,332.36L756.87,314.08L762.99,330.67L773.19,322.55L777.27,321.44L783.39,329.1L787.47,322.55L793.59,318.39L797.67,329.1L803.79,324.95L807.87,326.25L813.99,330.67L818.07,322.55L824.19,317.46L828.27,327.63L834.39,330.67L838.47,317.46L844.59,329.1L848.67,330.67L854.79,324.95L858.87,354.12L864.99,322.55L869.07,334.18L875.19,336.16L879.27,330.67L885.39,327.63L889.47,323.71L895.6,334.18L899.68,330.67L905.8,338.33L909.88,334.18L916,326.25L920.08,327.63L926.2,330.67L930.28,334.18L936.4,334.18L940.48,340.73L946.6,338.33L950.68,343.41L956.8,318.39L960.88,338.33L967,340.73L971.08,338.33L977.2,332.36L981.28,334.18L987.4,349.96L991.48,334.18L997.6,338.33L1001.68,338.33L1007.8,326.25L1011.88,330.67L1018,340.73" style="vector-effect: none; fill: none; stroke: rgb(247, 163, 92); stroke-opacity: 1; stroke-width: 2px; opacity: 1;"/></g><g class="points"/><g class="text"/></g></g></g></g><g class="zerolinelayer-above"/><path class="xlines-above crisp" d="M0,0" style="fill: none;"/><path class="ylines-above crisp" d="M0,0" style="fill: none;"/><g class="overlines-above"/><g class="xaxislayer-above"><g class="xtick"><text text-anchor="middle" x="0" y="451" transform="translate(159.95999999999998,0)" style="font-family: system-ui, -apple-system, 'Segoe UI', Roboto, 'Helvetica Neue', 'Noto Sans', 'Liberation Sans', Arial, sans-serif, 'Apple Color Emoji', 'Segoe UI Emoji', 'Segoe UI Symbol', 'Noto Color Emoji'; font-size: 10px; fill: rgb(80, 80, 80); fill-opacity: 1; white-space: pre;">50</text></g><g class="xtick"><text text-anchor="middle" x="0" y="451" style="font-family: system-ui, -apple-system, 'Segoe UI', Roboto, 'Helvetica Neue', 'Noto Sans', 'Liberation Sans', Arial, sans-serif, 'Apple Color Emoji', 'Segoe UI Emoji', 'Segoe UI Symbol', 'Noto Color Emoji'; font-size: 10px; fill: rgb(80, 80, 80); fill-opacity: 1; white-space: pre;" transform="translate(261.97,0)">100</text></g><g class="xtick"><text text-anchor="middle" x="0" y="451" style="font-family: system-ui, -apple-system, 'Segoe UI', Roboto, 'Helvetica Neue', 'Noto Sans', 'Liberation Sans', Arial, sans-serif, 'Apple Color Emoji', 'Segoe UI Emoji', 'Segoe UI Symbol', 'Noto Color Emoji'; font-size: 10px; fill: rgb(80, 80, 80); fill-opacity: 1; white-space: pre;" transform="translate(363.97,0)">150</text></g><g class="xtick"><text text-anchor="middle" x="0" y="451" style="font-family: system-ui, -apple-system, 'Segoe UI', Roboto, 'Helvetica Neue', 'Noto Sans', 'Liberation Sans', Arial, sans-serif, 'Apple Color Emoji', 'Segoe UI Emoji', 'Segoe UI Symbol', 'Noto Color Emoji'; font-size: 10px; fill: rgb(80, 80, 80); fill-opacity: 1; white-space: pre;" transform="translate(465.98,0)">200</text></g><g class="xtick"><text text-anchor="middle" x="0" y="451" style="font-family: system-ui, -apple-system, 'Segoe UI', Roboto, 'Helvetica Neue', 'Noto Sans', 'Liberation Sans', Arial, sans-serif, 'Apple Color Emoji', 'Segoe UI Emoji', 'Segoe UI Symbol', 'Noto Color Emoji'; font-size: 10px; fill: rgb(80, 80, 80); fill-opacity: 1; white-space: pre;" transform="translate(567.98,0)">250</text></g><g class="xtick"><text text-anchor="middle" x="0" y="451" style="font-family: system-ui, -apple-system, 'Segoe UI', Roboto, 'Helvetica Neue', 'Noto Sans', 'Liberation Sans', Arial, sans-serif, 'Apple Color Emoji', 'Segoe UI Emoji', 'Segoe UI Symbol', 'Noto Color Emoji'; font-size: 10px; fill: rgb(80, 80, 80); fill-opacity: 1; white-space: pre;" transform="translate(669.98,0)">300</text></g><g class="xtick"><text text-anchor="middle" x="0" y="451" style="font-family: system-ui, -apple-system, 'Segoe UI', Roboto, 'Helvetica Neue', 'Noto Sans', 'Liberation Sans', Arial, sans-serif, 'Apple Color Emoji', 'Segoe UI Emoji', 'Segoe UI Symbol', 'Noto Color Emoji'; font-size: 10px; fill: rgb(80, 80, 80); fill-opacity: 1; white-space: pre;" transform="translate(771.99,0)">350</text></g><g class="xtick"><text text-anchor="middle" x="0" y="451" style="font-family: system-ui, -apple-system, 'Segoe UI', Roboto, 'Helvetica Neue', 'Noto Sans', 'Liberation Sans', Arial, sans-serif, 'Apple Color Emoji', 'Segoe UI Emoji', 'Segoe UI Symbol', 'Noto Color Emoji'; font-size: 10px; fill: rgb(80, 80, 80); fill-opacity: 1; white-space: pre;" transform="translate(873.99,0)">400</text></g><g class="xtick"><text text-anchor="middle" x="0" y="451" style="font-family: system-ui, -apple-system, 'Segoe UI', Roboto, 'Helvetica Neue', 'Noto Sans', 'Liberation Sans', Arial, sans-serif, 'Apple Color Emoji', 'Segoe UI Emoji', 'Segoe UI Symbol', 'Noto Color Emoji'; font-size: 10px; fill: rgb(80, 80, 80); fill-opacity: 1; white-space: pre;" transform="translate(976,0)">450</text></g><g class="xtick"><text text-anchor="middle" x="0" y="451" style="font-family: system-ui, -apple-system, 'Segoe UI', Roboto, 'Helvetica Neue', 'Noto Sans', 'Liberation Sans', Arial, sans-serif, 'Apple Color Emoji', 'Segoe UI Emoji', 'Segoe UI Symbol', 'Noto Color Emoji'; font-size: 10px; fill: rgb(80, 80, 80); fill-opacity: 1; white-space: pre;" transform="translate(1078,0)">500</text></g></g><g class="yaxislayer-above"><g class="ytick"><text text-anchor="end" x="54" y="3.5" transform="translate(0,388.33)" style="font-family: system-ui, -apple-system, 'Segoe UI', Roboto, 'Helvetica Neue', 'Noto Sans', 'Liberation Sans', Arial, sans-serif, 'Apple Color Emoji', 'Segoe UI Emoji', 'Segoe UI Symbol', 'Noto Color Emoji'; font-size: 10px; fill: rgb(80, 80, 80); fill-opacity: 1; white-space: pre;">10</text></g><g class="ytick"><text text-anchor="end" x="54" y="3.5" style="font-family: system-ui, -apple-system, 'Segoe UI', Roboto, 'Helvetica Neue', 'Noto Sans', 'Liberation Sans', Arial, sans-serif, 'Apple Color Emoji', 'Segoe UI Emoji', 'Segoe UI Symbol', 'Noto Color Emoji'; font-size: 10px; fill: rgb(80, 80, 80); fill-opacity: 1; white-space: pre;" transform="translate(0,335.89)">100</text></g><g class="ytick"><text text-anchor="end" x="54" y="3.5" style="font-family: system-ui, -apple-system, 'Segoe UI', Roboto, 'Helvetica Neue', 'Noto Sans', 'Liberation Sans', Arial, sans-serif, 'Apple Color Emoji', 'Segoe UI Emoji', 'Segoe UI Symbol', 'Noto Color Emoji'; font-size: 10px; fill: rgb(80, 80, 80); fill-opacity: 1; white-space: pre;" transform="translate(0,283.46000000000004)">1000</text></g><g class="ytick"><text text-anchor="end" x="54" y="3.5" style="font-family: system-ui, -apple-system, 'Segoe UI', Roboto, 'Helvetica Neue', 'Noto Sans', 'Liberation Sans', Arial, sans-serif, 'Apple Color Emoji', 'Segoe UI Emoji', 'Segoe UI Symbol', 'Noto Color Emoji'; font-size: 10px; fill: rgb(80, 80, 80); fill-opacity: 1; white-space: pre;" transform="translate(0,231.02)">10k</text></g><g class="ytick"><text text-anchor="end" x="54" y="3.5" style="font-family: system-ui, -apple-system, 'Segoe UI', Roboto, 'Helvetica Neue', 'Noto Sans', 'Liberation Sans', Arial, sans-serif, 'Apple Color Emoji', 'Segoe UI Emoji', 'Segoe UI Symbol', 'Noto Color Emoji'; font-size: 10px; fill: rgb(80, 80, 80); fill-opacity: 1; white-space: pre;" transform="translate(0,178.58)">100k</text></g><g class="ytick"><text text-anchor="end" x="54" y="3.5" style="font-family: system-ui, -apple-system, 'Segoe UI', Roboto, 'Helvetica Neue', 'Noto Sans', 'Liberation Sans', Arial, sans-serif, 'Apple Color Emoji', 'Segoe UI Emoji', 'Segoe UI Symbol', 'Noto Color Emoji'; font-size: 10px; fill: rgb(80, 80, 80); fill-opacity: 1; white-space: pre;" transform="translate(0,126.14)">1M</text></g><g class="ytick"><text text-anchor="end" x="54" y="3.5" style="font-family: system-ui, -apple-system, 'Segoe UI', Roboto, 'Helvetica Neue', 'Noto Sans', 'Liberation Sans', Arial, sans-serif, 'Apple Color Emoji', 'Segoe UI Emoji', 'Segoe UI Symbol', 'Noto Color Emoji'; font-size: 10px; fill: rgb(80, 80, 80); fill-opacity: 1; white-space: pre;" transform="translate(0,73.71000000000001)">10M</text></g></g><g class="overaxes-above"/></g></g><g class="polarlayer"/><g class="smithlayer"/><g class="ternarylayer"/><g class="geolayer"/><g class="funnelarealayer"/><g class="pielayer"/><g class="iciclelayer"/><g class="treemaplayer"/><g class="sunburstlayer"/><g class="glimages"/><defs id="topdefs-507216"><g class="clips"/></defs><g class="layer-above"><g class="imagelayer"/><g class="shapelayer"/></g><g class="infolayer"><g class="g-gtitle"><text class="gtitle" x="550" y="25" text-anchor="middle" dy="0em" style="opacity: 1; font-family: system-ui, -apple-system, 'Segoe UI', Roboto, 'Helvetica Neue', 'Noto Sans', 'Liberation Sans', Arial, sans-serif, 'Apple Color Emoji', 'Segoe UI Emoji', 'Segoe UI Symbol', 'Noto Color Emoji'; font-size: 20px; fill: rgb(60, 60, 60); fill-opacity: 1; white-space: pre;"><tspan class="line" dy="0em" x="550" y="25">RSeQC: Read Duplication</tspan><tspan class="line" dy="1.3em" x="550" y="25">​<tspan style="font-size:70%" dy="-0.6em">24 lines</tspan><tspan dy="0.42em">​</tspan></tspan></text></g><g class="g-xtitle"><text class="xtitle" x="569" y="487" text-anchor="middle" style="opacity: 1; font-family: system-ui, -apple-system, 'Segoe UI', Roboto, 'Helvetica Neue', 'Noto Sans', 'Liberation Sans', Arial, sans-serif, 'Apple Color Emoji', 'Segoe UI Emoji', 'Segoe UI Symbol', 'Noto Color Emoji'; font-size: 14px; fill: rgb(100, 100, 100); fill-opacity: 1; white-space: pre;">Occurrence of read</text></g><g class="g-ytitle"><text class="ytitle" transform="rotate(-90,22,242.5)" x="22" y="242.5" text-anchor="middle" style="opacity: 1; font-family: system-ui, -apple-system, 'Segoe UI', Roboto, 'Helvetica Neue', 'Noto Sans', 'Liberation Sans', Arial, sans-serif, 'Apple Color Emoji', 'Segoe UI Emoji', 'Segoe UI Symbol', 'Noto Color Emoji'; font-size: 14px; fill: rgb(100, 100, 100); fill-opacity: 1; white-space: pre;">Number of Reads (log10)</text></g></g></svg>