<svg class="main-svg" xmlns="http://www.w3.org/2000/svg" xmlns:xlink="http://www.w3.org/1999/xlink" width="2200" height="1000" style="" viewBox="0 0 1100 500"><rect x="0" y="0" width="1100" height="500" style="fill: rgb(255, 255, 255); fill-opacity: 1;"/><defs id="defs-782adc"><g class="clips"><clipPath id="clip782adcxyplot" class="plotclip"><rect width="1025" height="385"/></clipPath><clipPath class="axesclip" id="clip782adcx"><rect x="60" y="0" width="1025" height="500"/></clipPath><clipPath class="axesclip" id="clip782adcy"><rect x="0" y="50" width="1100" height="385"/></clipPath><clipPath class="axesclip" id="clip782adcxy"><rect x="60" y="50" width="1025" height="385"/></clipPath></g><g class="gradients"/><g class="patterns"/></defs><g class="bglayer"/><g class="layer-below"><g class="imagelayer"/><g class="shapelayer"/></g><g class="cartesianlayer"><g class="subplot xy"><g class="layer-subplot"><g class="shapelayer"/><g class="imagelayer"/></g><g class="minor-gridlayer"><g class="x"/><g class="y"/></g><g class="gridlayer"><g class="x"><path class="xgrid crisp" transform="translate(158.36,0)" d="M0,50v385" style="stroke: rgb(128, 128, 128); stroke-opacity: 0.15; stroke-width: 1px;"/><path class="xgrid crisp" transform="translate(261.89,0)" d="M0,50v385" style="stroke: rgb(128, 128, 128); stroke-opacity: 0.15; stroke-width: 1px;"/><path class="xgrid crisp" transform="translate(365.43,0)" d="M0,50v385" style="stroke: rgb(128, 128, 128); stroke-opacity: 0.15; stroke-width: 1px;"/><path class="xgrid crisp" transform="translate(468.96,0)" d="M0,50v385" style="stroke: rgb(128, 128, 128); stroke-opacity: 0.15; stroke-width: 1px;"/><path class="xgrid crisp" transform="translate(676.04,0)" d="M0,50v385" style="stroke: rgb(128, 128, 128); stroke-opacity: 0.15; stroke-width: 1px;"/><path class="xgrid crisp" transform="translate(779.57,0)" d="M0,50v385" style="stroke: rgb(128, 128, 128); stroke-opacity: 0.15; stroke-width: 1px;"/><path class="xgrid crisp" transform="translate(883.11,0)" d="M0,50v385" style="stroke: rgb(128, 128, 128); stroke-opacity: 0.15; stroke-width: 1px;"/><path class="xgrid crisp" transform="translate(986.64,0)" d="M0,50v385" style="stroke: rgb(128, 128, 128); stroke-opacity: 0.15; stroke-width: 1px;"/></g><g class="y"><path class="ygrid crisp" transform="translate(0,370.06)" d="M60,0h1025" style="stroke: rgb(128, 128, 128); stroke-opacity: 0.15; stroke-width: 1px;"/><path class="ygrid crisp" transform="translate(0,324.37)" d="M60,0h1025" style="stroke: rgb(128, 128, 128); stroke-opacity: 0.15; stroke-width: 1px;"/><path class="ygrid crisp" transform="translate(0,278.66999999999996)" d="M60,0h1025" style="stroke: rgb(128, 128, 128); stroke-opacity: 0.15; stroke-width: 1px;"/><path class="ygrid crisp" transform="translate(0,232.98)" d="M60,0h1025" style="stroke: rgb(128, 128, 128); stroke-opacity: 0.15; stroke-width: 1px;"/><path class="ygrid crisp" transform="translate(0,187.29)" d="M60,0h1025" style="stroke: rgb(128, 128, 128); stroke-opacity: 0.15; stroke-width: 1px;"/><path class="ygrid crisp" transform="translate(0,141.6)" d="M60,0h1025" style="stroke: rgb(128, 128, 128); stroke-opacity: 0.15; stroke-width: 1px;"/><path class="ygrid crisp" transform="translate(0,95.91)" d="M60,0h1025" style="stroke: rgb(128, 128, 128); stroke-opacity: 0.15; stroke-width: 1px;"/></g></g><g class="zerolinelayer"><path class="xzl zl crisp" transform="translate(572.5,0)" d="M0,50v385" style="stroke: rgb(128, 128, 128); stroke-opacity: 0.2; stroke-width: 1px;"/><path class="yzl zl crisp" transform="translate(0,415.75)" d="M60,0h1025" style="stroke: rgb(128, 128, 128); stroke-opacity: 0.2; stroke-width: 1px;"/></g><g class="layer-between"><g class="shapelayer"/><g class="imagelayer"/></g><path class="xlines-below"/><path class="ylines-below"/><g class="overlines-below"/><g class="xaxislayer-below"/><g class="yaxislayer-below"/><g class="overaxes-below"/><g class="overplot"><g class="xy" transform="translate(60,50)" clip-path="url(#clip782adcxyplot)"><g class="scatterlayer mlayer"><g class="trace scatter trace0bd772" style="stroke-miterlimit: 2; opacity: 1;"><g class="fills"/><g class="errorbars"/><g class="lines"><path class="js-line" d="M0,365.75L186.36,365.75L196.72,352.8L207.07,223.28L217.42,219.17L238.13,212.07L248.48,207.09L258.84,204.52L269.19,196.42L279.55,193.26L289.9,186.96L310.61,172.59L320.96,163.37L331.31,156.38L341.67,146.15L352.02,136.7L362.37,125.64L372.73,108.94L383.08,101.42L393.43,91.38L403.79,82.58L414.14,75.76L424.49,73.2L434.85,66.16L445.2,65.81L455.56,69.02L465.91,74.9L486.62,89.53L496.97,101.01L507.32,104.55L517.68,127.62L548.74,185.16L559.09,197.97L569.44,217.88L579.8,235.42L590.15,246.94L600.51,261.75L610.86,272.76L621.21,285.33L631.57,296.46L641.92,305.04L652.27,311.32L662.63,320.1L672.98,324.79L683.33,331.55L693.69,334.85L704.04,339.26L714.39,342.84L724.75,345.17L735.1,348.57L745.45,350.63L766.16,354.1L776.52,354.75L807.58,358.48L817.93,359.36L859.34,361.86L869.7,362L931.82,363.67L942.17,363.89L973.23,364.44L983.59,364.44L1025,364.9" style="vector-effect: none; fill: none; stroke: rgb(124, 181, 236); stroke-opacity: 1; stroke-width: 2px; opacity: 1;"/></g><g class="points"/><g class="text"/></g><g class="trace scatter trace6af5bc" style="stroke-miterlimit: 2; opacity: 1;"><g class="fills"/><g class="errorbars"/><g class="lines"><path class="js-line" d="M0,365.75L186.36,365.75L196.72,355.84L207.07,258.09L217.42,251.38L227.78,246.15L238.13,243.52L248.48,237.04L258.84,232.55L269.19,223.85L279.55,217.6L289.9,205.4L300.25,194.97L320.96,167.85L331.31,156.98L341.67,136.86L352.02,121.58L362.37,103.44L372.73,89.52L383.08,73.39L393.43,63.41L403.79,54.52L414.14,43.17L424.49,35.94L434.85,37.73L445.2,39.5L455.56,43.19L465.91,51.83L476.26,62.75L486.62,75.09L496.97,90.32L507.32,94.61L517.68,121.74L528.03,144.54L538.38,161L559.09,204.93L569.44,221.42L600.51,265.79L610.86,278.05L621.21,290.29L631.57,299.88L652.27,315.47L662.63,322.44L683.33,333.55L693.69,338.8L724.75,348.5L735.1,350.22L766.16,356.06L776.52,357.23L838.64,361.8L848.99,362.31L869.7,363.07L880.05,363.41L1025,365.18" style="vector-effect: none; fill: none; stroke: rgb(67, 67, 72); stroke-opacity: 1; stroke-width: 2px; opacity: 1;"/></g><g class="points"/><g class="text"/></g><g class="trace scatter trace014ba4" style="stroke-miterlimit: 2; opacity: 1;"><g class="fills"/><g class="errorbars"/><g class="lines"><path class="js-line" d="M0,365.75L186.36,365.75L196.72,357.21L207.07,269.25L217.42,264.21L227.78,261.67L238.13,256.46L248.48,251.59L258.84,245.88L269.19,236.16L279.55,229.58L300.25,207.74L310.61,196.39L320.96,178.69L331.31,166.88L341.67,148.82L352.02,132.79L362.37,114.09L372.73,98.89L383.08,78.98L393.43,68.25L403.79,53.73L414.14,42.02L424.49,37.28L434.85,34.64L445.2,32.56L455.56,35.9L465.91,42.28L476.26,53.11L486.62,64.91L496.97,78.5L507.32,85.17L517.68,110.25L528.03,129.08L538.38,152.4L559.09,193.14L569.44,208.63L590.15,245.26L600.51,256.66L610.86,271.52L621.21,283.98L652.27,312.41L662.63,318.72L693.69,336.75L704.04,340.4L745.45,351.35L755.81,353.23L797.22,358.82L807.58,359.25L817.93,360.73L828.28,361.26L869.7,362.78L880.05,363.38L973.23,364.75L983.59,365.06L1014.65,364.89L1025,365.13" style="vector-effect: none; fill: none; stroke: rgb(144, 237, 125); stroke-opacity: 1; stroke-width: 2px; opacity: 1;"/></g><g class="points"/><g class="text"/></g><g class="trace scatter trace4ffeb8" style="stroke-miterlimit: 2; opacity: 1;"><g class="fills"/><g class="errorbars"/><g class="lines"><path class="js-line" d="M0,365.75L186.36,365.75L196.72,355.63L207.07,259.14L217.42,252.32L227.78,249.84L238.13,244.48L248.48,242.36L258.84,237.01L269.19,225.27L279.55,216.47L289.9,206.79L300.25,195.6L320.96,174.52L331.31,159.8L352.02,129.67L362.37,111.88L372.73,97.5L383.08,85.37L403.79,59L414.14,51.97L424.49,45.35L434.85,41.88L445.2,43.09L455.56,46.6L465.91,51.76L476.26,60.35L496.97,88.03L507.32,86.23L517.68,114.78L528.03,138.5L538.38,158.39L548.74,176.53L569.44,213.76L579.8,228.7L590.15,245.44L600.51,259.35L610.86,271.41L621.21,285.05L641.92,305.26L652.27,313.6L662.63,321.42L672.98,326.31L693.69,337.45L704.04,340.09L714.39,344.61L724.75,347.85L735.1,350.53L745.45,352.32L776.52,357.29L786.87,358.26L807.58,359.94L817.93,360.22L838.64,361.38L848.99,361.93L880.05,362.86L890.4,363.11L931.82,364.23L942.17,364.25L1025,365.13" style="vector-effect: none; fill: none; stroke: rgb(247, 163, 92); stroke-opacity: 1; stroke-width: 2px; opacity: 1;"/></g><g class="points"/><g class="text"/></g><g class="trace scatter trace2b96db" style="stroke-miterlimit: 2; opacity: 1;"><g class="fills"/><g class="errorbars"/><g class="lines"><path class="js-line" d="M0,365.75L186.36,365.75L196.72,358L207.07,277.91L217.42,272.43L238.13,264.77L248.48,262.26L269.19,251.29L279.55,239.8L289.9,230.63L300.25,219.42L320.96,197L331.31,181.07L352.02,147.7L362.37,129.68L383.08,92.67L393.43,78.67L403.79,63.78L414.14,51.66L434.85,35.94L445.2,32.06L455.56,36.14L465.91,35.02L476.26,45.6L486.62,58.3L496.97,68.83L507.32,70.74L528.03,119.82L538.38,135.86L548.74,155.61L559.09,178.06L569.44,193.54L579.8,214.67L600.51,246.31L610.86,260.7L621.21,274.8L631.57,285.3L641.92,295.54L652.27,304.36L662.63,313.17L672.98,320.1L693.69,331.13L704.04,335.9L714.39,339.33L724.75,344.15L755.81,352.23L766.16,353.75L786.87,357.07L797.22,357.96L807.58,359.57L817.93,359.77L859.34,362.13L869.7,362.59L983.59,364.89L993.94,364.71L1025,365.06" style="vector-effect: none; fill: none; stroke: rgb(128, 133, 233); stroke-opacity: 1; stroke-width: 2px; opacity: 1;"/></g><g class="points"/><g class="text"/></g><g class="trace scatter tracedaf268" style="stroke-miterlimit: 2; opacity: 1;"><g class="fills"/><g class="errorbars"/><g class="lines"><path class="js-line" d="M0,365.75L186.36,365.75L196.72,355.03L207.07,247.37L217.42,242.98L227.78,240.46L238.13,235.89L248.48,232.64L258.84,226.17L269.19,221.52L279.55,211.31L289.9,205.08L300.25,194.77L310.61,186.85L320.96,173.27L331.31,162.34L341.67,148.84L362.37,119.95L372.73,107.39L383.08,92.49L393.43,82.38L403.79,68.48L414.14,61.13L424.49,54.84L434.85,57.8L445.2,53.29L455.56,54.31L465.91,61.71L476.26,70.94L496.97,92.47L507.32,92.86L517.68,119.28L528.03,137.02L538.38,154.32L548.74,173.18L559.09,190.35L569.44,211.17L600.51,255.18L610.86,268.65L631.57,291.19L641.92,299.28L652.27,307.96L662.63,314.31L672.98,322.15L683.33,327.67L714.39,341.65L724.75,344.27L755.81,351.86L766.16,353L786.87,357.11L797.22,357.45L807.58,359.4L817.93,359.57L859.34,362.56L869.7,362.37L900.76,363.59L911.11,363.88L1025,365.25" style="vector-effect: none; fill: none; stroke: rgb(241, 92, 128); stroke-opacity: 1; stroke-width: 2px; opacity: 1;"/></g><g class="points"/><g class="text"/></g><g class="trace scatter trace644fa6" style="stroke-miterlimit: 2; opacity: 1;"><g class="fills"/><g class="errorbars"/><g class="lines"><path class="js-line" d="M0,365.75L186.36,365.75L196.72,358.71L207.07,290.34L217.42,284.54L227.78,282.8L238.13,279.99L258.84,268.4L269.19,262.16L279.55,253.87L289.9,242.77L310.61,218.7L320.96,202.89L331.31,187.2L341.67,166.75L352.02,152.24L362.37,130.97L383.08,92.58L393.43,74.95L403.79,61.22L414.14,49.92L424.49,38.66L434.85,29.1L445.2,22.64L455.56,26.46L465.91,29.37L476.26,36.68L486.62,45.86L496.97,60.19L507.32,61.6L517.68,88.56L528.03,107.39L538.38,131.15L559.09,170.76L569.44,193.26L610.86,259.38L621.21,271.62L631.57,283.18L641.92,292.67L652.27,303.58L662.63,311.73L683.33,325.19L693.69,331.29L724.75,344.13L735.1,346.56L766.16,353.29L776.52,354.66L797.22,357.28L807.58,357.75L817.93,359.39L828.28,360.1L838.64,360.97L848.99,361.03L869.7,362.35L880.05,362.26L921.46,363.79L931.82,363.94L1025,364.86" style="vector-effect: none; fill: none; stroke: rgb(228, 211, 84); stroke-opacity: 1; stroke-width: 2px; opacity: 1;"/></g><g class="points"/><g class="text"/></g><g class="trace scatter tracea2fb95" style="stroke-miterlimit: 2; opacity: 1;"><g class="fills"/><g class="errorbars"/><g class="lines"><path class="js-line" d="M0,365.75L186.36,365.75L196.72,357.75L207.07,277.24L217.42,271.89L227.78,268.9L238.13,263.72L248.48,260.34L258.84,251.19L269.19,244.1L279.55,233.86L289.9,223.32L300.25,211.7L320.96,182.14L331.31,164.37L341.67,149.17L352.02,129.9L362.37,115.92L372.73,96.65L383.08,81.43L393.43,61.8L403.79,57.39L414.14,47.17L424.49,39.42L434.85,33.1L445.2,34.68L455.56,37.52L465.91,47.89L476.26,54.77L486.62,71.52L496.97,79.23L507.32,89.55L517.68,111.79L528.03,135.06L538.38,152.98L559.09,190.52L569.44,209.65L579.8,224.32L590.15,240.91L621.21,279.78L631.57,288.9L652.27,306.96L662.63,314.32L693.69,332.18L704.04,336.17L714.39,340.57L724.75,343.68L745.45,349.61L755.81,350.95L766.16,353.32L776.52,354.65L807.58,358.62L817.93,359.22L828.28,359.56L838.64,360.82L900.76,362.62L911.11,363.28L931.82,363.75L942.17,363.68L983.59,364.43L993.94,364.62L1025,364.98" style="vector-effect: none; fill: none; stroke: rgb(43, 144, 143); stroke-opacity: 1; stroke-width: 2px; opacity: 1;"/></g><g class="points"/><g class="text"/></g><g class="trace scatter traceac7c67" style="stroke-miterlimit: 2; opacity: 1;"><g class="fills"/><g class="errorbars"/><g class="lines"><path class="js-line" d="M0,365.75L186.36,365.75L196.72,356.05L207.07,261.69L217.42,254.92L227.78,251.34L238.13,246.65L248.48,240.53L258.84,232.38L269.19,223.74L279.55,212.39L289.9,202.05L300.25,186.23L310.61,173.46L320.96,157.66L331.31,139.52L341.67,124.47L352.02,105.42L362.37,89.89L383.08,56.09L393.43,49.34L403.79,35.64L414.14,30.36L424.49,29.65L434.85,33.04L445.2,37.14L455.56,42.88L465.91,55.26L476.26,66.27L486.62,84.53L496.97,97.84L507.32,107.46L517.68,132.95L528.03,158.69L538.38,175.2L548.74,194.23L559.09,209.93L569.44,229.2L579.8,244.87L600.51,273.64L610.86,284.93L621.21,295.15L631.57,303.18L641.92,311.39L652.27,317.92L672.98,330.67L683.33,334.77L704.04,343.45L714.39,347.46L745.45,353.58L755.81,355.11L776.52,358.05L786.87,358.85L869.7,363.18L880.05,363.33L921.46,364.34L931.82,364.11L973.23,364.66L983.59,364.89L1025,365.04" style="vector-effect: none; fill: none; stroke: rgb(244, 91, 91); stroke-opacity: 1; stroke-width: 2px; opacity: 1;"/></g><g class="points"/><g class="text"/></g><g class="trace scatter trace50248a" style="stroke-miterlimit: 2; opacity: 1;"><g class="fills"/><g class="errorbars"/><g class="lines"><path class="js-line" d="M0,365.75L186.36,365.75L196.72,357.4L207.07,270.43L217.42,267.08L238.13,259.7L248.48,257.31L258.84,250.31L269.19,244.61L289.9,228.64L300.25,216.54L310.61,207.85L320.96,194.88L341.67,167.15L352.02,151.59L362.37,136.6L372.73,119.42L383.08,105.81L393.43,89.9L403.79,78.27L414.14,68.96L424.49,58.02L434.85,50.36L445.2,51.03L455.56,50.7L465.91,51.67L476.26,55.98L486.62,67.52L496.97,74.22L507.32,75.36L517.68,96.92L528.03,122.53L538.38,137.8L548.74,154.32L559.09,174.34L569.44,189.42L579.8,209.39L590.15,223.29L600.51,240.08L621.21,266.04L631.57,277.07L652.27,297.56L662.63,307.18L672.98,313.77L683.33,318.94L704.04,330.91L714.39,335.17L735.1,342.38L745.45,345.67L755.81,348.56L766.16,350.43L786.87,354.01L797.22,355.9L817.93,357.9L828.28,359.19L848.99,360.51L859.34,361.04L911.11,363.16L921.46,363.33L952.53,364L962.88,364.26L1025,364.82" style="vector-effect: none; fill: none; stroke: rgb(145, 232, 225); stroke-opacity: 1; stroke-width: 2px; opacity: 1;"/></g><g class="points"/><g class="text"/></g><g class="trace scatter trace2634c6" style="stroke-miterlimit: 2; opacity: 1;"><g class="fills"/><g class="errorbars"/><g class="lines"><path class="js-line" d="M0,365.75L186.36,365.75L196.72,356.42L207.07,272.94L217.42,267.79L227.78,265.83L238.13,259.06L248.48,254.7L258.84,248.67L269.19,241.59L279.55,230.01L289.9,218.33L300.25,209.01L310.61,195.53L320.96,179.75L331.31,163.77L341.67,149.76L352.02,132.59L362.37,117.07L372.73,95.67L383.08,83.49L393.43,71.19L403.79,52.75L414.14,44.29L424.49,39.42L434.85,36.1L445.2,38.78L455.56,40.57L465.91,48.02L476.26,51.75L486.62,69.67L496.97,82.57L507.32,84.74L517.68,108.77L528.03,135.04L548.74,171.64L559.09,191.97L569.44,207.76L579.8,225L590.15,239.06L600.51,256.13L621.21,280.39L631.57,289.09L641.92,300.7L652.27,308.06L662.63,315.88L672.98,321.68L683.33,328.62L693.69,333.06L704.04,336.92L714.39,341.92L724.75,345.38L735.1,347.03L745.45,350.19L755.81,351.58L776.52,355.48L786.87,356.4L797.22,357.13L807.58,358.69L838.64,360.92L848.99,361.21L869.7,362.4L880.05,362.83L1025,364.99" style="vector-effect: none; fill: none; stroke: rgb(124, 181, 236); stroke-opacity: 1; stroke-width: 2px; opacity: 1;"/></g><g class="points"/><g class="text"/></g><g class="trace scatter tracecdfce8" style="stroke-miterlimit: 2; opacity: 1;"><g class="fills"/><g class="errorbars"/><g class="lines"><path class="js-line" d="M0,365.75L186.36,365.75L196.72,355.66L207.07,259.1L217.42,249.98L227.78,248.46L238.13,242.48L248.48,239.48L258.84,227.73L269.19,223.27L279.55,209.15L289.9,201.3L300.25,188.94L320.96,161.48L331.31,145.98L341.67,130L352.02,111.03L393.43,56.79L403.79,49.34L414.14,43.13L424.49,40.99L434.85,38.66L445.2,43.38L455.56,49.29L465.91,57.72L476.26,67.16L486.62,87.51L496.97,96.1L507.32,105.7L517.68,131.63L528.03,149.96L538.38,171.67L548.74,190.98L579.8,242.23L590.15,254.22L600.51,269.41L610.86,278.62L621.21,291.45L631.57,301.49L652.27,316.43L662.63,322.67L683.33,332.28L693.69,336.31L714.39,344.97L724.75,347.67L745.45,352.21L755.81,353.55L766.16,355.62L776.52,356.78L828.28,360.61L838.64,360.97L900.76,363.31L911.11,363.15L921.46,363.82L931.82,363.48L962.88,364.32L973.23,364.63L1014.65,364.89L1025,364.99" style="vector-effect: none; fill: none; stroke: rgb(67, 67, 72); stroke-opacity: 1; stroke-width: 2px; opacity: 1;"/></g><g class="points"/><g class="text"/></g><g class="trace scatter traced054f0" style="stroke-miterlimit: 2; opacity: 1;"><g class="fills"/><g class="errorbars"/><g class="lines"><path class="js-line" d="M0,365.75L186.36,365.75L196.72,355.57L207.07,258.25L217.42,250.47L227.78,249.14L238.13,245.4L248.48,241.27L258.84,233.55L269.19,229.93L279.55,219.92L289.9,212.21L300.25,199.15L320.96,176.45L331.31,167.63L341.67,151.88L352.02,138.18L362.37,119.46L372.73,103.75L383.08,92.02L393.43,78.63L403.79,69.15L414.14,61.05L424.49,52.69L434.85,48.86L445.2,50.67L455.56,55.78L465.91,60.94L476.26,69.2L486.62,79.94L496.97,89.26L507.32,88.59L517.68,114.8L528.03,139.58L538.38,157.29L559.09,192.99L569.44,209.82L579.8,226.52L590.15,238.54L600.51,254.48L610.86,267.62L621.21,278.58L631.57,288.02L641.92,298.79L652.27,306.35L662.63,314.65L672.98,320.81L693.69,332.02L704.04,336.32L724.75,344.37L735.1,346.51L745.45,349.49L755.81,350.53L776.52,354.97L786.87,356.26L817.93,359.1L828.28,359.73L838.64,360.68L848.99,360.75L911.11,363.22L921.46,363.38L1025,364.74" style="vector-effect: none; fill: none; stroke: rgb(144, 237, 125); stroke-opacity: 1; stroke-width: 2px; opacity: 1;"/></g><g class="points"/><g class="text"/></g><g class="trace scatter tracec0265f" style="stroke-miterlimit: 2; opacity: 1;"><g class="fills"/><g class="errorbars"/><g class="lines"><path class="js-line" d="M0,365.75L186.36,365.75L196.72,356.92L207.07,262.18L217.42,257.74L248.48,241.7L258.84,232.95L269.19,224.03L279.55,211.69L289.9,202.9L300.25,186.07L310.61,173.79L320.96,157.7L352.02,104.13L362.37,87.08L383.08,53.3L393.43,43.3L403.79,31.8L414.14,24.12L434.85,25.28L445.2,34.23L455.56,37.14L465.91,51.62L476.26,62.42L486.62,80.3L496.97,95.77L507.32,106.54L517.68,133.74L528.03,155.91L538.38,177.45L548.74,196.82L559.09,215.75L569.44,231.02L579.8,249.48L590.15,263.77L600.51,277.61L610.86,288.92L641.92,315.97L652.27,323.18L662.63,329.69L672.98,335.09L693.69,342.44L704.04,345.74L724.75,351.48L735.1,353.08L755.81,356.61L766.16,357.32L786.87,359.76L797.22,359.99L838.64,362.62L848.99,362.83L869.7,363.39L880.05,363.57L921.46,364.2L931.82,363.96L952.53,364.64L962.88,364.67L1025,365.25" style="vector-effect: none; fill: none; stroke: rgb(247, 163, 92); stroke-opacity: 1; stroke-width: 2px; opacity: 1;"/></g><g class="points"/><g class="text"/></g><g class="trace scatter trace36004e" style="stroke-miterlimit: 2; opacity: 1;"><g class="fills"/><g class="errorbars"/><g class="lines"><path class="js-line" d="M0,365.75L186.36,365.75L196.72,356.81L207.07,272.61L217.42,266.84L238.13,259.64L248.48,253.2L269.19,237.64L279.55,229.02L289.9,219.78L300.25,205.16L310.61,194.12L320.96,178L331.31,166.44L341.67,149.32L352.02,127.91L362.37,113.45L383.08,78.58L393.43,66.29L403.79,51.86L414.14,42.89L424.49,40.89L434.85,35.46L445.2,34.63L455.56,35.87L465.91,46.81L476.26,52.6L486.62,69.89L496.97,79.97L507.32,86.31L517.68,113.86L528.03,135.87L538.38,153.91L569.44,213.52L579.8,229.08L590.15,244.45L600.51,258.46L621.21,283.9L631.57,293.55L641.92,303.12L652.27,310.27L662.63,317.91L672.98,324.52L704.04,339.31L714.39,343.75L724.75,346.02L735.1,349.38L745.45,350.54L755.81,353.08L766.16,354.16L776.52,356.18L786.87,357.59L797.22,358.18L838.64,361.35L848.99,361.58L931.82,363.84L942.17,363.96L1004.29,364.59L1014.65,364.95L1025,364.97" style="vector-effect: none; fill: none; stroke: rgb(128, 133, 233); stroke-opacity: 1; stroke-width: 2px; opacity: 1;"/></g><g class="points"/><g class="text"/></g><g class="trace scatter traced4f2ba" style="stroke-miterlimit: 2; opacity: 1;"><g class="fills"/><g class="errorbars"/><g class="lines"><path class="js-line" d="M0,365.75L186.36,365.75L196.72,356.12L207.07,264.32L217.42,257.4L227.78,255.02L238.13,250.59L248.48,244.76L258.84,236.88L269.19,229.57L279.55,220.52L310.61,184.87L320.96,173.11L331.31,157.97L341.67,140.94L352.02,124.97L362.37,107.14L372.73,92.56L383.08,76.04L393.43,61.45L403.79,53.88L414.14,46.36L424.49,40.82L434.85,41.23L445.2,40.24L455.56,43.91L465.91,52.66L476.26,63.26L486.62,77.11L507.32,96.64L517.68,121.89L528.03,142.98L538.38,162.07L548.74,183.22L559.09,198.88L569.44,217.43L579.8,233.86L600.51,261.57L610.86,274.05L621.21,285.4L631.57,295.15L652.27,313.1L662.63,319.7L693.69,335.95L704.04,339.71L735.1,348.71L745.45,350.32L755.81,352.76L766.16,353.8L786.87,357.1L797.22,358.39L859.34,361.77L869.7,361.57L931.82,363.56L942.17,363.63L962.88,364.04L973.23,364.27L1025,364.92" style="vector-effect: none; fill: none; stroke: rgb(241, 92, 128); stroke-opacity: 1; stroke-width: 2px; opacity: 1;"/></g><g class="points"/><g class="text"/></g><g class="trace scatter trace96e8ac" style="stroke-miterlimit: 2; opacity: 1;"><g class="fills"/><g class="errorbars"/><g class="lines"><path class="js-line" d="M0,365.75L186.36,365.75L196.72,356.47L207.07,266.5L217.42,259.5L227.78,252.29L238.13,250.62L248.48,245.21L258.84,237.41L269.19,230.78L279.55,220.38L289.9,210.11L300.25,197.92L320.96,173.88L331.31,156.59L352.02,123.7L362.37,106.38L372.73,91.7L383.08,75.31L393.43,64.91L403.79,52.23L414.14,45.25L424.49,41.32L434.85,38.36L445.2,37.61L455.56,42.24L465.91,51.34L476.26,58.08L486.62,74.7L496.97,88.25L507.32,92.02L528.03,142.08L538.38,159.25L548.74,183.83L559.09,200.1L569.44,215.42L579.8,232.85L600.51,262.43L610.86,274.85L621.21,286.97L631.57,296.35L652.27,313.62L662.63,319.6L672.98,326.34L683.33,331.11L693.69,337L704.04,340.66L714.39,344.6L724.75,346.4L735.1,350.04L745.45,351.97L776.52,356.96L786.87,357.64L797.22,358.07L807.58,359.74L880.05,363.08L890.4,363.22L911.11,363.63L921.46,363.93L1025,365.09" style="vector-effect: none; fill: none; stroke: rgb(228, 211, 84); stroke-opacity: 1; stroke-width: 2px; opacity: 1;"/></g><g class="points"/><g class="text"/></g><g class="trace scatter trace5247bc" style="stroke-miterlimit: 2; opacity: 1;"><g class="fills"/><g class="errorbars"/><g class="lines"><path class="js-line" d="M0,365.75L186.36,365.75L196.72,355.83L207.07,261.52L217.42,253.16L227.78,249.04L238.13,243.41L248.48,240.08L258.84,231.86L269.19,224.32L279.55,214.34L300.25,195.02L310.61,181.14L320.96,164.52L331.31,151.9L341.67,134.61L352.02,121.56L362.37,102.91L372.73,90.4L393.43,59.27L403.79,49.06L414.14,42.26L424.49,40.38L434.85,37.71L445.2,40.86L455.56,44.65L465.91,51.3L476.26,61.45L486.62,78.59L496.97,92.29L507.32,99.84L517.68,124.24L528.03,146.55L548.74,183.77L559.09,205.65L579.8,239.73L590.15,253.55L610.86,279.19L621.21,291.98L652.27,316.31L662.63,323.63L683.33,333.88L693.69,338.15L714.39,345.25L724.75,348.32L735.1,351.34L745.45,352.34L766.16,355.46L776.52,357L817.93,360.32L828.28,360.32L848.99,361.83L859.34,361.96L931.82,363.85L942.17,363.98L1025,365.06" style="vector-effect: none; fill: none; stroke: rgb(43, 144, 143); stroke-opacity: 1; stroke-width: 2px; opacity: 1;"/></g><g class="points"/><g class="text"/></g><g class="trace scatter trace21cd26" style="stroke-miterlimit: 2; opacity: 1;"><g class="fills"/><g class="errorbars"/><g class="lines"><path class="js-line" d="M0,365.75L186.36,365.75L196.72,357.64L207.07,282.89L217.42,276.63L227.78,276.14L238.13,270.71L248.48,266.17L258.84,259.96L279.55,245.22L289.9,234.71L300.25,222.43L310.61,208.78L320.96,195.63L331.31,181.17L352.02,147.12L362.37,127.72L393.43,75.31L403.79,59.92L414.14,50.25L424.49,43.07L434.85,35.02L445.2,34.21L455.56,32.62L465.91,36.22L476.26,42.34L486.62,56.4L496.97,66.69L507.32,73.26L517.68,91.39L528.03,116.53L559.09,177.33L569.44,196.42L579.8,212.09L590.15,231.22L621.21,273.46L631.57,282.33L662.63,311.9L672.98,318.25L704.04,335.81L714.39,340.13L724.75,344.17L735.1,346.4L755.81,351.79L766.16,352.81L786.87,356.06L797.22,357.17L828.28,360.56L838.64,361.08L900.76,363.36L911.11,363.7L931.82,363.99L942.17,364.2L973.23,364.64L983.59,364.65L1025,364.98" style="vector-effect: none; fill: none; stroke: rgb(244, 91, 91); stroke-opacity: 1; stroke-width: 2px; opacity: 1;"/></g><g class="points"/><g class="text"/></g><g class="trace scatter trace6d3766" style="stroke-miterlimit: 2; opacity: 1;"><g class="fills"/><g class="errorbars"/><g class="lines"><path class="js-line" d="M0,365.75L186.36,365.75L196.72,355.16L207.07,248.89L217.42,240.38L227.78,239.39L238.13,232.12L248.48,229.19L258.84,220.5L269.19,214.52L279.55,205.46L289.9,197.42L300.25,185.21L310.61,176.77L320.96,162.8L331.31,150.39L341.67,135.2L362.37,102.73L372.73,90.54L383.08,79.62L393.43,65.2L414.14,50.26L424.49,49.28L434.85,44.15L445.2,50.25L465.91,58.11L476.26,69L486.62,82.45L496.97,97.15L507.32,101.14L517.68,127.54L528.03,151.08L538.38,167.86L548.74,184.97L559.09,206.39L579.8,239.98L590.15,254.32L600.51,268.33L610.86,279.5L621.21,290.6L631.57,299.69L641.92,307.93L652.27,315.21L662.63,323.51L672.98,328.08L683.33,332.99L693.69,338.78L704.04,341.52L714.39,345.37L755.81,353.87L766.16,355.52L807.58,359.68L817.93,360.32L848.99,361.73L859.34,362.52L900.76,363.56L911.11,363.73L993.94,364.86L1004.29,364.96L1025,364.95" style="vector-effect: none; fill: none; stroke: rgb(145, 232, 225); stroke-opacity: 1; stroke-width: 2px; opacity: 1;"/></g><g class="points"/><g class="text"/></g><g class="trace scatter trace45d438" style="stroke-miterlimit: 2; opacity: 1;"><g class="fills"/><g class="errorbars"/><g class="lines"><path class="js-line" d="M0,365.75L186.36,365.75L196.72,357.83L207.07,281.23L217.42,277.33L227.78,273.3L238.13,265.93L258.84,252.36L269.19,242.48L279.55,232.06L289.9,218.87L300.25,206.76L310.61,191.56L331.31,154.8L341.67,137.38L383.08,59.18L393.43,47.97L403.79,35.92L414.14,25.14L424.49,19.25L434.85,20.72L445.2,22.35L455.56,28.89L476.26,49.09L486.62,64.48L496.97,80.5L507.32,88.46L517.68,119.87L528.03,143.27L538.38,165.64L548.74,180.55L559.09,201.69L569.44,218.31L590.15,253.69L600.51,264.31L621.21,290.58L631.57,297.97L641.92,307.22L652.27,315.39L662.63,322.84L672.98,329.11L693.69,338.4L704.04,342.1L735.1,350.49L745.45,351.8L766.16,355.83L776.52,357.04L797.22,359.23L807.58,359.87L859.34,362.87L869.7,363.13L942.17,364.24L952.53,364.4L983.59,364.78L993.94,364.82L1025,364.97" style="vector-effect: none; fill: none; stroke: rgb(124, 181, 236); stroke-opacity: 1; stroke-width: 2px; opacity: 1;"/></g><g class="points"/><g class="text"/></g><g class="trace scatter tracea8a9f1" style="stroke-miterlimit: 2; opacity: 1;"><g class="fills"/><g class="errorbars"/><g class="lines"><path class="js-line" d="M0,365.75L186.36,365.75L196.72,356.6L207.07,270.48L217.42,265.59L227.78,261.9L238.13,255.22L248.48,252.88L258.84,245.63L269.19,238.62L279.55,227.72L289.9,217.52L300.25,205.49L310.61,194.18L320.96,177.59L331.31,162.87L341.67,146.61L362.37,110.58L372.73,94.8L383.08,77.69L393.43,62.58L403.79,50.48L414.14,43.06L424.49,38.4L434.85,32.29L445.2,34.7L455.56,39.91L465.91,42.89L476.26,54.78L496.97,79.04L507.32,84L517.68,112.51L528.03,137.89L548.74,175.46L559.09,193.45L569.44,214.2L579.8,229.01L590.15,239.48L600.51,258.14L621.21,284.74L631.57,293.73L662.63,320L672.98,326.29L704.04,340.09L714.39,343.94L745.45,351.22L755.81,353.74L766.16,354.52L776.52,356.41L786.87,357.93L797.22,358.26L838.64,361.74L848.99,361.93L869.7,362.62L880.05,363.04L921.46,364.16L931.82,364.06L942.17,363.89L952.53,364.56L993.94,364.85L1004.29,365.06L1025,365.03" style="vector-effect: none; fill: none; stroke: rgb(67, 67, 72); stroke-opacity: 1; stroke-width: 2px; opacity: 1;"/></g><g class="points"/><g class="text"/></g><g class="trace scatter trace190dd0" style="stroke-miterlimit: 2; opacity: 1;"><g class="fills"/><g class="errorbars"/><g class="lines"><path class="js-line" d="M0,365.75L186.36,365.75L196.72,351.62L207.07,210.59L217.42,205.51L227.78,202.22L238.13,195.79L248.48,192.92L258.84,185.41L269.19,179.83L279.55,171.25L300.25,156.5L310.61,150.74L352.02,114.27L362.37,103.96L372.73,98.49L383.08,84.81L393.43,81.23L403.79,76.74L414.14,71.56L424.49,71.4L434.85,71.14L445.2,75.34L455.56,81.85L465.91,89.45L486.62,109.28L496.97,124.41L507.32,123.96L517.68,148.13L528.03,167.12L538.38,183.98L548.74,202.36L559.09,217.91L569.44,234.4L579.8,247.3L590.15,260.2L600.51,274.45L621.21,295.43L631.57,303.05L641.92,312.17L652.27,318.22L672.98,329.89L683.33,334.45L714.39,345.72L724.75,347.62L755.81,354.16L766.16,354.88L786.87,357.18L797.22,358.61L838.64,361.15L848.99,361.62L1025,364.99" style="vector-effect: none; fill: none; stroke: rgb(144, 237, 125); stroke-opacity: 1; stroke-width: 2px; opacity: 1;"/></g><g class="points"/><g class="text"/></g><g class="trace scatter trace590d0b" style="stroke-miterlimit: 2; opacity: 1;"><g class="fills"/><g class="errorbars"/><g class="lines"><path class="js-line" d="M0,365.75L186.36,365.75L196.72,356.79L207.07,272.25L217.42,266.94L227.78,263.54L238.13,257.77L248.48,253.09L258.84,246.13L269.19,238.59L279.55,228.45L289.9,218.21L300.25,202.26L310.61,188.21L320.96,172.64L331.31,155.22L341.67,135.9L352.02,121.4L362.37,102.17L383.08,65.31L393.43,50.66L403.79,37.23L414.14,31.16L424.49,26.95L434.85,26.3L445.2,27.76L455.56,34.81L465.91,40.64L476.26,49.08L486.62,63.36L496.97,83.69L507.32,90.91L517.68,118.1L528.03,144.05L538.38,162.54L548.74,185.81L559.09,202.17L579.8,235.77L590.15,249.63L600.51,267.52L610.86,279.69L621.21,290.61L631.57,296.8L641.92,309.02L652.27,315.07L662.63,323.31L672.98,329.08L683.33,334.38L693.69,338.37L714.39,346.29L724.75,348.75L745.45,353L755.81,354.86L776.52,357.94L786.87,358.27L828.28,361.48L838.64,361.99L869.7,363.26L880.05,363.15L911.11,363.94L921.46,364.09L962.88,364.67L973.23,364.74L1014.65,364.95L1025,365.23" style="vector-effect: none; fill: none; stroke: rgb(247, 163, 92); stroke-opacity: 1; stroke-width: 2px; opacity: 1;"/></g><g class="points"/><g class="text"/></g></g></g></g><g class="zerolinelayer-above"/><path class="xlines-above crisp" d="M0,0" style="fill: none;"/><path class="ylines-above crisp" d="M0,0" style="fill: none;"/><g class="overlines-above"/><g class="xaxislayer-above"><g class="xtick"><text text-anchor="middle" x="0" y="451" transform="translate(158.36,0)" style="font-family: system-ui, -apple-system, 'Segoe UI', Roboto, 'Helvetica Neue', 'Noto Sans', 'Liberation Sans', Arial, sans-serif, 'Apple Color Emoji', 'Segoe UI Emoji', 'Segoe UI Symbol', 'Noto Color Emoji'; font-size: 10px; fill: rgb(80, 80, 80); fill-opacity: 1; white-space: pre;">−200 bp</text></g><g class="xtick"><text text-anchor="middle" x="0" y="451" style="font-family: system-ui, -apple-system, 'Segoe UI', Roboto, 'Helvetica Neue', 'Noto Sans', 'Liberation Sans', Arial, sans-serif, 'Apple Color Emoji', 'Segoe UI Emoji', 'Segoe UI Symbol', 'Noto Color Emoji'; font-size: 10px; fill: rgb(80, 80, 80); fill-opacity: 1; white-space: pre;" transform="translate(261.89,0)">−150 bp</text></g><g class="xtick"><text text-anchor="middle" x="0" y="451" style="font-family: system-ui, -apple-system, 'Segoe UI', Roboto, 'Helvetica Neue', 'Noto Sans', 'Liberation Sans', Arial, sans-serif, 'Apple Color Emoji', 'Segoe UI Emoji', 'Segoe UI Symbol', 'Noto Color Emoji'; font-size: 10px; fill: rgb(80, 80, 80); fill-opacity: 1; white-space: pre;" transform="translate(365.43,0)">−100 bp</text></g><g class="xtick"><text text-anchor="middle" x="0" y="451" style="font-family: system-ui, -apple-system, 'Segoe UI', Roboto, 'Helvetica Neue', 'Noto Sans', 'Liberation Sans', Arial, sans-serif, 'Apple Color Emoji', 'Segoe UI Emoji', 'Segoe UI Symbol', 'Noto Color Emoji'; font-size: 10px; fill: rgb(80, 80, 80); fill-opacity: 1; white-space: pre;" transform="translate(468.96,0)">−50 bp</text></g><g class="xtick"><text text-anchor="middle" x="0" y="451" style="font-family: system-ui, -apple-system, 'Segoe UI', Roboto, 'Helvetica Neue', 'Noto Sans', 'Liberation Sans', Arial, sans-serif, 'Apple Color Emoji', 'Segoe UI Emoji', 'Segoe UI Symbol', 'Noto Color Emoji'; font-size: 10px; fill: rgb(80, 80, 80); fill-opacity: 1; white-space: pre;" transform="translate(572.5,0)">0 bp</text></g><g class="xtick"><text text-anchor="middle" x="0" y="451" style="font-family: system-ui, -apple-system, 'Segoe UI', Roboto, 'Helvetica Neue', 'Noto Sans', 'Liberation Sans', Arial, sans-serif, 'Apple Color Emoji', 'Segoe UI Emoji', 'Segoe UI Symbol', 'Noto Color Emoji'; font-size: 10px; fill: rgb(80, 80, 80); fill-opacity: 1; white-space: pre;" transform="translate(676.04,0)">50 bp</text></g><g class="xtick"><text text-anchor="middle" x="0" y="451" style="font-family: system-ui, -apple-system, 'Segoe UI', Roboto, 'Helvetica Neue', 'Noto Sans', 'Liberation Sans', Arial, sans-serif, 'Apple Color Emoji', 'Segoe UI Emoji', 'Segoe UI Symbol', 'Noto Color Emoji'; font-size: 10px; fill: rgb(80, 80, 80); fill-opacity: 1; white-space: pre;" transform="translate(779.57,0)">100 bp</text></g><g class="xtick"><text text-anchor="middle" x="0" y="451" style="font-family: system-ui, -apple-system, 'Segoe UI', Roboto, 'Helvetica Neue', 'Noto Sans', 'Liberation Sans', Arial, sans-serif, 'Apple Color Emoji', 'Segoe UI Emoji', 'Segoe UI Symbol', 'Noto Color Emoji'; font-size: 10px; fill: rgb(80, 80, 80); fill-opacity: 1; white-space: pre;" transform="translate(883.11,0)">150 bp</text></g><g class="xtick"><text text-anchor="middle" x="0" y="451" style="font-family: system-ui, -apple-system, 'Segoe UI', Roboto, 'Helvetica Neue', 'Noto Sans', 'Liberation Sans', Arial, sans-serif, 'Apple Color Emoji', 'Segoe UI Emoji', 'Segoe UI Symbol', 'Noto Color Emoji'; font-size: 10px; fill: rgb(80, 80, 80); fill-opacity: 1; white-space: pre;" transform="translate(986.64,0)">200 bp</text></g></g><g class="yaxislayer-above"><g class="ytick"><text text-anchor="end" x="54" y="3.5" transform="translate(0,415.75)" style="font-family: system-ui, -apple-system, 'Segoe UI', Roboto, 'Helvetica Neue', 'Noto Sans', 'Liberation Sans', Arial, sans-serif, 'Apple Color Emoji', 'Segoe UI Emoji', 'Segoe UI Symbol', 'Noto Color Emoji'; font-size: 10px; fill: rgb(80, 80, 80); fill-opacity: 1; white-space: pre;">0</text></g><g class="ytick"><text text-anchor="end" x="54" y="3.5" style="font-family: system-ui, -apple-system, 'Segoe UI', Roboto, 'Helvetica Neue', 'Noto Sans', 'Liberation Sans', Arial, sans-serif, 'Apple Color Emoji', 'Segoe UI Emoji', 'Segoe UI Symbol', 'Noto Color Emoji'; font-size: 10px; fill: rgb(80, 80, 80); fill-opacity: 1; white-space: pre;" transform="translate(0,370.06)">5k</text></g><g class="ytick"><text text-anchor="end" x="54" y="3.5" style="font-family: system-ui, -apple-system, 'Segoe UI', Roboto, 'Helvetica Neue', 'Noto Sans', 'Liberation Sans', Arial, sans-serif, 'Apple Color Emoji', 'Segoe UI Emoji', 'Segoe UI Symbol', 'Noto Color Emoji'; font-size: 10px; fill: rgb(80, 80, 80); fill-opacity: 1; white-space: pre;" transform="translate(0,324.37)">10k</text></g><g class="ytick"><text text-anchor="end" x="54" y="3.5" style="font-family: system-ui, -apple-system, 'Segoe UI', Roboto, 'Helvetica Neue', 'Noto Sans', 'Liberation Sans', Arial, sans-serif, 'Apple Color Emoji', 'Segoe UI Emoji', 'Segoe UI Symbol', 'Noto Color Emoji'; font-size: 10px; fill: rgb(80, 80, 80); fill-opacity: 1; white-space: pre;" transform="translate(0,278.66999999999996)">15k</text></g><g class="ytick"><text text-anchor="end" x="54" y="3.5" style="font-family: system-ui, -apple-system, 'Segoe UI', Roboto, 'Helvetica Neue', 'Noto Sans', 'Liberation Sans', Arial, sans-serif, 'Apple Color Emoji', 'Segoe UI Emoji', 'Segoe UI Symbol', 'Noto Color Emoji'; font-size: 10px; fill: rgb(80, 80, 80); fill-opacity: 1; white-space: pre;" transform="translate(0,232.98)">20k</text></g><g class="ytick"><text text-anchor="end" x="54" y="3.5" style="font-family: system-ui, -apple-system, 'Segoe UI', Roboto, 'Helvetica Neue', 'Noto Sans', 'Liberation Sans', Arial, sans-serif, 'Apple Color Emoji', 'Segoe UI Emoji', 'Segoe UI Symbol', 'Noto Color Emoji'; font-size: 10px; fill: rgb(80, 80, 80); fill-opacity: 1; white-space: pre;" transform="translate(0,187.29)">25k</text></g><g class="ytick"><text text-anchor="end" x="54" y="3.5" style="font-family: system-ui, -apple-system, 'Segoe UI', Roboto, 'Helvetica Neue', 'Noto Sans', 'Liberation Sans', Arial, sans-serif, 'Apple Color Emoji', 'Segoe UI Emoji', 'Segoe UI Symbol', 'Noto Color Emoji'; font-size: 10px; fill: rgb(80, 80, 80); fill-opacity: 1; white-space: pre;" transform="translate(0,141.6)">30k</text></g><g class="ytick"><text text-anchor="end" x="54" y="3.5" style="font-family: system-ui, -apple-system, 'Segoe UI', Roboto, 'Helvetica Neue', 'Noto Sans', 'Liberation Sans', Arial, sans-serif, 'Apple Color Emoji', 'Segoe UI Emoji', 'Segoe UI Symbol', 'Noto Color Emoji'; font-size: 10px; fill: rgb(80, 80, 80); fill-opacity: 1; white-space: pre;" transform="translate(0,95.91)">35k</text></g><g class="ytick"><text text-anchor="end" x="54" y="3.5" style="font-family: system-ui, -apple-system, 'Segoe UI', Roboto, 'Helvetica Neue', 'Noto Sans', 'Liberation Sans', Arial, sans-serif, 'Apple Color Emoji', 'Segoe UI Emoji', 'Segoe UI Symbol', 'Noto Color Emoji'; font-size: 10px; fill: rgb(80, 80, 80); fill-opacity: 1; white-space: pre;" transform="translate(0,50.21)">40k</text></g></g><g class="overaxes-above"/></g></g><g class="polarlayer"/><g class="smithlayer"/><g class="ternarylayer"/><g class="geolayer"/><g class="funnelarealayer"/><g class="pielayer"/><g class="iciclelayer"/><g class="treemaplayer"/><g class="sunburstlayer"/><g class="glimages"/><defs id="topdefs-782adc"><g class="clips"/></defs><g class="layer-above"><g class="imagelayer"/><g class="shapelayer"/></g><g class="infolayer"><g class="g-gtitle"><text class="gtitle" x="550" y="25" text-anchor="middle" dy="0em" style="opacity: 1; font-family: system-ui, -apple-system, 'Segoe UI', Roboto, 'Helvetica Neue', 'Noto Sans', 'Liberation Sans', Arial, sans-serif, 'Apple Color Emoji', 'Segoe UI Emoji', 'Segoe UI Symbol', 'Noto Color Emoji'; font-size: 20px; fill: rgb(60, 60, 60); fill-opacity: 1; white-space: pre;"><tspan class="line" dy="0em" x="550" y="25">RSeQC: Inner Distance</tspan><tspan class="line" dy="1.3em" x="550" y="25">​<tspan style="font-size:70%" dy="-0.6em">Counts, 24 lines</tspan><tspan dy="0.42em">​</tspan></tspan></text></g><g class="g-xtitle"><text class="xtitle" x="572.5" y="487" text-anchor="middle" style="opacity: 1; font-family: system-ui, -apple-system, 'Segoe UI', Roboto, 'Helvetica Neue', 'Noto Sans', 'Liberation Sans', Arial, sans-serif, 'Apple Color Emoji', 'Segoe UI Emoji', 'Segoe UI Symbol', 'Noto Color Emoji'; font-size: 14px; fill: rgb(100, 100, 100); fill-opacity: 1; white-space: pre;">Inner Distance (bp)</text></g><g class="g-ytitle"><text class="ytitle" transform="rotate(-90,22,242.5)" x="22" y="242.5" text-anchor="middle" style="opacity: 1; font-family: system-ui, -apple-system, 'Segoe UI', Roboto, 'Helvetica Neue', 'Noto Sans', 'Liberation Sans', Arial, sans-serif, 'Apple Color Emoji', 'Segoe UI Emoji', 'Segoe UI Symbol', 'Noto Color Emoji'; font-size: 14px; fill: rgb(100, 100, 100); fill-opacity: 1; white-space: pre;">Counts</text></g></g></svg>